<svg width="500" height="500" viewBox="0 0 500 500" fill="none" xmlns="http://www.w3.org/2000/svg">
<g clip-path="url(#clip0_19_241)">
<path d="M103.061 371.944C97.428 336.467 119.866 300.616 148.018 280.533C198.373 252.374 252.825 238.106 283.434 183.447C294.983 164.849 303.296 143.978 318.052 127.803C335.755 108.399 360.979 97.704 386.065 89.918C453.64 65.378 474.542 119.145 466.667 177.045C468.255 301.703 445.615 479.751 280.038 457.083C231.456 446.89 118.978 424.702 103.061 371.944Z" fill="#FDF3E8"/>
<mask id="mask0_19_241" style="mask-type:luminance" maskUnits="userSpaceOnUse" x="-1" y="0" width="501" height="427">
<path d="M9.11951e-06 0C9.11951e-06 0 -1.70399 281.147 9.11951e-06 322.491C2.43701 344.945 23.283 381.623 40.427 396.325C76.858 429.459 138.023 437.878 184.13 409.04C210.723 388.141 223.152 375.619 259.527 378.782C335.214 384.384 456.818 388.044 487.956 301.755C498.048 264.329 500 0 500 0H9.11951e-06Z" fill="white"/>
</mask>
<g mask="url(#mask0_19_241)">
<path d="M163.764 71.91C95.729 87.456 75.674 154.416 57.506 213.182C44.093 250.565 12.462 284.354 14.167 325.698C16.604 348.152 29.138 384.83 46.282 399.532C82.713 432.666 143.878 441.085 189.985 412.246C216.578 391.347 229.007 378.825 265.382 381.988C341.068 387.59 450.732 395.087 481.87 308.797C491.962 271.371 472.208 221.636 448.127 191.479C360.207 81.38 258.452 57.939 163.764 71.91Z" fill="#F9E0C6"/>
</g>
<mask id="mask1_19_241" style="mask-type:luminance" maskUnits="userSpaceOnUse" x="-1" y="0" width="501" height="427">
<path d="M9.11951e-06 0C9.11951e-06 0 -1.70399 281.147 9.11951e-06 322.491C2.43701 344.945 23.283 381.623 40.427 396.325C76.858 429.459 138.023 437.878 184.13 409.04C210.723 388.141 223.152 375.619 259.527 378.782C335.214 384.384 456.818 388.044 487.956 301.755C498.048 264.329 500 0 500 0H9.11951e-06Z" fill="white"/>
</mask>
<g mask="url(#mask1_19_241)">
<path d="M114.505 416.434C112.475 366.885 135.84 316.96 175.187 286.776C180.975 308.146 179.003 333.656 174.34 356.6C170.3 376.482 143.291 423.329 122.965 441.614C119.899 432.889 114.922 426.61 114.505 416.434Z" fill="#8DA291"/>
<path d="M175.139 286.763C170.634 299.569 167.838 313.066 164.029 326.097C160.203 339.184 156.074 352.182 151.677 365.089C142.867 390.953 132.434 416.071 122.377 441.452C122.125 442.089 123.205 442.55 123.491 441.922C134.628 417.4 143.929 391.809 152.635 366.339C157.045 353.437 161.186 340.443 165.028 327.359C168.918 314.108 173.358 300.506 175.236 286.79C175.244 286.727 175.161 286.7 175.139 286.763Z" fill="#73806D"/>
<path d="M165.558 294.537C165.925 299.008 166.848 304.002 169.47 307.752C169.643 307.999 170.083 307.859 169.984 307.535C168.636 303.142 166.731 299.044 165.742 294.512C165.72 294.411 165.549 294.431 165.558 294.537Z" fill="#73806D"/>
<path d="M154.401 305.385C156.367 313.761 158.496 321.859 162.726 329.413C163.109 330.097 164.162 329.484 163.778 328.798C159.66 321.445 157.178 313.321 154.762 305.286C154.693 305.054 154.345 305.15 154.401 305.385Z" fill="#73806D"/>
<path d="M146.194 318.346C146.359 323.106 147.72 327.391 149.572 331.758C151.875 337.188 154.177 343.022 157.445 347.944C157.72 348.358 158.51 348.104 158.302 347.583C154.429 337.884 147.711 328.96 146.475 318.346C146.455 318.171 146.188 318.161 146.194 318.346Z" fill="#73806D"/>
<path d="M132.282 339.549C133.71 347.097 135.681 354.418 138.449 361.59C140.686 367.386 142.99 374.485 147.08 379.203C147.328 379.49 147.811 379.185 147.707 378.838C145.719 372.25 141.519 366.085 139.017 359.613C136.477 353.043 134.318 346.292 132.553 339.474C132.507 339.297 132.248 339.373 132.282 339.549Z" fill="#73806D"/>
<path d="M123.813 359.698C125.432 367.007 127.482 374.14 130.365 381.057C132.721 386.71 135.139 393.285 139.116 397.993C139.386 398.312 139.957 397.972 139.821 397.583C137.592 391.217 133.625 385.312 131.059 379.022C128.462 372.655 126.101 366.201 124.174 359.598C124.107 359.366 123.761 359.463 123.813 359.698Z" fill="#73806D"/>
<path d="M117.094 383.022C118.075 388.698 120.714 394.039 123.316 399.127C125.892 404.166 128.934 410.462 133.295 414.164C133.671 414.483 134.473 414.189 134.235 413.617C132.206 408.735 128.452 404.354 125.757 399.773C122.656 394.501 119.223 388.782 117.274 382.972C117.236 382.856 117.073 382.904 117.094 383.022Z" fill="#73806D"/>
<path d="M115.31 410.003C116.283 414.055 117.719 417.629 119.969 421.147C121.802 424.013 124.222 427.895 127.337 429.394C127.707 429.572 128.13 429.204 127.914 428.817C126.119 425.597 122.864 423.108 120.807 419.961C118.75 416.815 116.953 413.388 115.481 409.931C115.438 409.83 115.286 409.904 115.31 410.003Z" fill="#73806D"/>
<path d="M178.068 306.35C176.372 308.165 174.53 309.74 172.526 311.207C170.895 312.401 168.888 313.339 167.426 314.712C167.139 314.981 167.442 315.415 167.791 315.339C169.849 314.891 171.934 313.266 173.526 311.92C175.366 310.363 176.973 308.545 178.435 306.635C178.599 306.422 178.247 306.158 178.068 306.35Z" fill="#73806D"/>
<path d="M178.008 316.427C174.458 319.27 170.048 321.067 165.522 321.531C164.93 321.592 164.917 322.522 165.522 322.469C170.491 322.032 174.625 320.1 178.14 316.56C178.228 316.471 178.101 316.353 178.008 316.427Z" fill="#73806D"/>
<path d="M176.765 336.584C173.893 338.228 170.913 339.639 167.767 340.68C164.982 341.602 162.011 341.926 159.277 342.931C158.746 343.126 158.806 343.93 159.414 343.944C165.475 344.079 172.205 340.505 177.239 337.393C177.75 337.076 177.291 336.283 176.765 336.584Z" fill="#73806D"/>
<path d="M176.09 349.368C169.528 351.914 162.817 354.724 155.658 354.487C154.813 354.459 154.814 355.772 155.658 355.8C163.199 356.05 169.725 353.194 176.234 349.711C176.417 349.612 176.291 349.29 176.09 349.368Z" fill="#73806D"/>
<path d="M166.578 375.026C160.064 378.749 153.756 381.186 146.439 382.748C145.775 382.89 145.912 383.998 146.601 383.945C154.106 383.371 160.973 380.036 166.957 375.673C167.339 375.396 167.007 374.781 166.578 375.026Z" fill="#73806D"/>
<path d="M159.259 390.028C156.372 390.955 153.675 392.305 150.732 393.119C147.775 393.938 144.764 394.186 141.789 394.849C141.184 394.984 141.383 395.809 141.926 395.862C147.551 396.41 155.165 394.068 159.441 390.341C159.583 390.218 159.433 389.972 159.259 390.028Z" fill="#73806D"/>
<path d="M149.548 406.553C147.502 407.962 145.254 408.922 142.834 409.49C140.312 410.082 138.065 409.673 135.542 409.715C135.072 409.723 134.786 410.462 135.282 410.676C140.16 412.78 146.256 410.409 150.002 407.142C150.321 406.865 149.901 406.31 149.548 406.553Z" fill="#73806D"/>
<path d="M284.416 434.362C297.796 432.594 310.136 424.195 316.688 412.396C323.241 400.597 323.848 385.683 318.277 373.39C315.481 367.221 311.253 361.727 308.998 355.341C304.46 342.488 308.543 328.303 307.487 314.714C306.542 302.558 301.288 290.781 292.874 281.957C290.803 279.785 288.476 277.743 285.662 276.699C282.379 275.481 278.699 275.736 275.333 276.704C262.565 280.377 254.546 293.369 251.52 306.306C248.494 319.243 249.229 332.755 247.325 345.904C245.337 359.634 240.464 373.348 242.684 387.043C245.857 406.616 284.416 434.362 284.416 434.362Z" fill="#8DA291"/>
<path d="M280.424 275.521C274.909 308.729 273.216 342.293 275.295 375.895C276.328 392.59 278.265 409.242 281.228 425.706C284.068 441.486 287.139 458.209 293.516 473.001C293.931 473.965 295.353 473.252 295.144 472.315C291.612 456.459 286.643 441.049 283.688 425.028C280.584 408.202 278.57 391.183 277.503 374.108C275.454 341.339 276.726 308.148 281.07 275.607C281.117 275.245 280.484 275.156 280.424 275.521Z" fill="#73806D"/>
<path d="M296.312 288.316C293.035 291.104 289.571 293.63 286.001 296.027C283.117 297.963 279.749 299.377 277.098 301.593C276.764 301.872 277.124 302.405 277.508 302.298C284.609 300.327 291.49 293.665 296.577 288.581C296.75 288.408 296.493 288.161 296.312 288.316Z" fill="#73806D"/>
<path d="M306.708 310.728C301.889 313.978 297.015 317.176 292.097 320.274C287.197 323.361 281.777 325.875 277.094 329.254C276.622 329.594 276.886 330.534 277.528 330.282C288.122 326.114 298.178 318.188 306.935 311.022C307.099 310.888 306.884 310.609 306.708 310.728Z" fill="#73806D"/>
<path d="M256.025 296.024C257.246 300.111 260.033 303.344 262.66 306.623C266.356 311.237 270.316 315.564 274.487 319.75C275.042 320.307 275.898 319.449 275.349 318.888C272.015 315.48 268.788 311.969 265.61 308.417C262.231 304.642 258.23 300.758 256.568 295.874C256.452 295.535 255.92 295.674 256.025 296.024Z" fill="#73806D"/>
<path d="M249.176 334.122C252.755 339.573 257.473 343.557 262.484 347.654C265.402 350.04 268.37 352.362 271.334 354.691C272.635 355.713 273.46 356.548 275.107 356.71C276.129 356.811 276.116 355.223 275.107 355.116C272.91 354.883 269.78 351.38 268.066 350.015C266.291 348.602 264.503 347.212 262.701 345.833C257.891 342.152 253.511 338.636 249.986 333.648C249.642 333.163 248.841 333.612 249.176 334.122Z" fill="#73806D"/>
<path d="M307.051 333.67C297.475 342.39 287.613 350.205 276.016 356.106C274.885 356.682 275.88 358.371 277.01 357.806C288.521 352.046 299.409 344.213 307.383 334.002C307.565 333.769 307.281 333.461 307.051 333.67Z" fill="#73806D"/>
<path d="M308.735 360.319C303.757 364.841 298.324 368.99 292.732 372.723C288.286 375.691 281.657 378.128 278.326 382.287C278.028 382.659 278.304 383.154 278.782 383.071C284.424 382.089 290.525 376.754 295.18 373.526C300.483 369.848 305.162 365.867 309.398 360.983C309.792 360.527 309.185 359.91 308.735 360.319Z" fill="#73806D"/>
<path d="M319.543 381.212C313.826 387.779 307.384 393.585 300.28 398.624C297.161 400.837 293.915 402.874 290.564 404.718C286.763 406.81 282.462 408.187 278.857 410.554C278.355 410.883 278.681 411.601 279.254 411.496C287.137 410.05 295.388 404.159 301.756 399.532C308.683 394.499 314.759 388.454 320.139 381.807C320.475 381.394 319.904 380.797 319.543 381.212Z" fill="#73806D"/>
<path d="M245.664 359.807C246.768 378.073 263.041 389.935 277.138 399.029C277.755 399.427 278.504 398.488 277.933 397.998C265.176 387.062 248.121 378.408 246.039 359.807C246.013 359.572 245.649 359.561 245.664 359.807Z" fill="#73806D"/>
<path d="M245.777 389.061C249.583 395.165 254.286 400.762 260.055 405.103C265.412 409.134 272.579 413.677 279.384 414.482C279.901 414.543 280.073 413.749 279.644 413.521C273.767 410.402 267.613 408.551 262.09 404.623C255.896 400.219 250.527 395.059 246.1 388.871C245.963 388.679 245.648 388.853 245.777 389.061Z" fill="#73806D"/>
<path d="M382.572 386.749C386.824 337.341 416.316 290.772 459.164 265.806C462.203 287.736 457.02 312.792 449.493 334.962C442.971 354.173 410.254 397.228 387.779 412.796C385.842 403.754 381.699 396.897 382.572 386.749Z" fill="#8DA291"/>
<path d="M459.121 265.782C452.966 278.023 448.455 291.2 442.974 303.754C437.581 316.106 431.903 328.334 425.978 340.44C413.966 364.983 400.43 388.578 387.254 412.49C386.875 413.178 387.894 413.773 388.306 413.105C402.764 389.709 415.463 364.955 427.525 340.257C433.577 327.864 439.366 315.343 444.858 302.692C450.066 290.697 455.83 278.477 459.212 265.82C459.227 265.767 459.147 265.73 459.121 265.782Z" fill="#73806D"/>
<path d="M448.629 272.3C448.429 276.825 448.754 281.815 450.855 285.924C451.009 286.225 451.423 286.003 451.369 285.707C450.546 281.203 449.225 276.904 448.816 272.3C448.806 272.181 448.635 272.178 448.629 272.3Z" fill="#73806D"/>
<path d="M436.189 281.611C437.081 290.163 438.148 298.408 441.383 306.449C441.672 307.167 442.851 306.854 442.558 306.125C439.397 298.268 437.943 289.879 436.557 281.561C436.523 281.355 436.167 281.401 436.189 281.611Z" fill="#73806D"/>
<path d="M426.41 293.474C425.916 298.83 427.047 303.732 428.541 308.85C430.049 314.014 431.466 319.46 433.856 324.293C434.096 324.779 434.842 324.434 434.713 323.932C432.109 313.839 426.578 304.141 426.692 293.475C426.693 293.29 426.426 293.297 426.41 293.474Z" fill="#73806D"/>
<path d="M409.928 312.71C410.358 319.826 411.252 326.788 412.869 333.736C414.387 340.259 415.872 348.235 419.567 353.897C419.807 354.264 420.326 354.023 420.252 353.608C419.097 347.108 415.919 340.758 414.28 334.301C412.48 327.212 411.132 319.964 410.209 312.711C410.187 312.536 409.916 312.525 409.928 312.71Z" fill="#73806D"/>
<path d="M398.978 331.62C399.61 338.5 400.578 345.331 402.329 352.023C404.002 358.418 405.708 365.901 409.286 371.525C409.545 371.932 410.161 371.67 410.057 371.2C408.595 364.589 405.461 358.237 403.703 351.645C401.937 345.022 400.419 338.342 399.346 331.571C399.314 331.363 398.959 331.409 398.978 331.62Z" fill="#73806D"/>
<path d="M389.364 353.92C389.63 359.93 391.705 365.824 393.77 371.422C395.68 376.598 397.803 382.836 401.544 386.928C401.931 387.351 402.627 386.907 402.484 386.381C401.097 381.272 397.879 376.434 395.786 371.54C393.392 365.942 390.74 359.882 389.547 353.895C389.528 353.791 389.359 353.815 389.364 353.92Z" fill="#73806D"/>
<path d="M384.182 380.458C384.94 387.253 387.786 397.108 393.706 401.257C394.091 401.527 394.434 401.021 394.283 400.68C392.856 397.452 390.247 394.772 388.633 391.572C386.856 388.05 385.449 384.226 384.366 380.433C384.339 380.336 384.17 380.35 384.182 380.458Z" fill="#73806D"/>
<path d="M459.524 285.607C457.686 287.131 455.747 288.417 453.663 289.574C451.828 290.592 449.671 291.314 447.973 292.509C447.702 292.699 447.756 293.25 448.162 293.208C452.56 292.752 456.874 288.95 459.855 285.939C460.071 285.72 459.752 285.418 459.524 285.607Z" fill="#73806D"/>
<path d="M458.223 295.569C454.306 297.953 449.706 299.163 445.123 299.056C444.519 299.042 444.521 299.971 445.123 299.994C450.093 300.182 454.409 298.768 458.337 295.717C458.421 295.651 458.312 295.515 458.223 295.569Z" fill="#73806D"/>
<path d="M454.489 315.393C451.579 316.596 448.609 317.586 445.523 318.23C442.442 318.873 439.274 318.846 436.215 319.512C435.744 319.615 435.703 320.437 436.215 320.506C442.379 321.337 449.32 318.758 454.85 316.249C455.328 316.034 454.981 315.19 454.489 315.393Z" fill="#73806D"/>
<path d="M452.12 328.015C445.337 329.696 438.339 331.639 431.319 330.522C430.493 330.391 430.137 331.655 430.97 331.788C438.491 332.984 445.238 331.037 452.219 328.377C452.441 328.292 452.359 327.956 452.12 328.015Z" fill="#73806D"/>
<path d="M439.511 352.243C432.606 355.104 426.078 356.78 418.596 357.367C417.82 357.428 417.804 358.553 418.596 358.586C426.132 358.895 433.288 356.515 439.8 352.929C440.162 352.729 439.91 352.078 439.511 352.243Z" fill="#73806D"/>
<path d="M430.283 366.22C427.496 366.768 424.842 367.695 422.013 368.124C418.78 368.613 415.668 368.515 412.439 368.784C411.896 368.829 411.696 369.666 412.302 369.797C417.933 371.015 425.594 369.717 430.427 366.563C430.608 366.445 430.491 366.179 430.283 366.22Z" fill="#73806D"/>
<path d="M418.541 381.401C416.124 382.642 413.435 383.385 410.712 383.516C408.48 383.623 406.409 383.01 404.225 382.741C403.697 382.676 403.552 383.465 403.965 383.702C408.54 386.329 414.799 384.8 418.919 382.049C419.321 381.78 418.972 381.179 418.541 381.401Z" fill="#73806D"/>
</g>
<mask id="mask2_19_241" style="mask-type:luminance" maskUnits="userSpaceOnUse" x="-1" y="0" width="501" height="427">
<path d="M9.11951e-06 0C9.11951e-06 0 -1.70399 281.147 9.11951e-06 322.491C2.43701 344.945 23.283 381.623 40.427 396.325C76.858 429.459 138.023 437.878 184.13 409.04C210.723 388.141 223.152 375.619 259.527 378.782C335.214 384.384 456.818 388.044 487.956 301.755C498.048 264.329 500 0 500 0H9.11951e-06Z" fill="white"/>
</mask>
<g mask="url(#mask2_19_241)">
<path d="M354.898 298.73H64.147C57.76 298.73 52.582 293.552 52.582 287.165V88.586C52.582 82.199 57.76 77.021 64.147 77.021H354.898C361.285 77.021 366.463 82.199 366.463 88.586V287.166C366.463 293.553 361.285 298.73 354.898 298.73Z" fill="#EDF9F1"/>
<path d="M271.597 146.751H230.214V180.78H271.597V146.751Z" fill="#73806D"/>
<path d="M64.682 285.73V113.217C64.682 112.353 65.382 111.652 66.246 111.652H352.797C353.661 111.652 354.361 112.352 354.361 113.217V285.73C354.361 286.594 353.661 287.295 352.797 287.295H66.247C65.383 287.294 64.682 286.594 64.682 285.73Z" stroke="#C9D9C7" stroke-miterlimit="10"/>
<path d="M64.682 181.497H354.362" stroke="#C9D9C7" stroke-miterlimit="10"/>
<path d="M64.682 146.575H354.362" stroke="#C9D9C7" stroke-miterlimit="10"/>
<path d="M64.682 216.419H354.362" stroke="#C9D9C7" stroke-miterlimit="10"/>
<path d="M64.682 251.341H354.362" stroke="#C9D9C7" stroke-miterlimit="10"/>
<path d="M106.065 111.652V287.294" stroke="#C9D9C7" stroke-miterlimit="10"/>
<path d="M147.448 111.652V287.294" stroke="#C9D9C7" stroke-miterlimit="10"/>
<path d="M188.831 111.652V287.294" stroke="#C9D9C7" stroke-miterlimit="10"/>
<path d="M230.214 111.652V287.294" stroke="#C9D9C7" stroke-miterlimit="10"/>
<path d="M271.597 111.652V287.294" stroke="#C9D9C7" stroke-miterlimit="10"/>
<path d="M312.979 111.652V287.294" stroke="#C9D9C7" stroke-miterlimit="10"/>
<path d="M196.701 87.6193H197.98V95.1682C197.98 95.8419 197.856 96.4143 197.608 96.8852C197.361 97.3562 197.012 97.7137 196.562 97.9577C196.111 98.2018 195.58 98.3238 194.968 98.3238C194.391 98.3238 193.877 98.219 193.427 98.0093C192.976 97.7962 192.622 97.4937 192.364 97.1018C192.107 96.7099 191.978 96.2441 191.978 95.7044H193.236C193.236 96.0035 193.31 96.2647 193.458 96.4882C193.609 96.7082 193.815 96.8801 194.076 97.0038C194.338 97.1276 194.635 97.1894 194.968 97.1894C195.336 97.1894 195.649 97.1121 195.907 96.9574C196.165 96.8027 196.361 96.5758 196.495 96.2768C196.632 95.9743 196.701 95.6047 196.701 95.1682V87.6193ZM207.472 87.6193H208.751V94.6113C208.751 95.3332 208.581 95.9777 208.241 96.5449C207.904 97.1086 207.428 97.5538 206.812 97.8804C206.197 98.2035 205.475 98.3651 204.647 98.3651C203.818 98.3651 203.096 98.2035 202.481 97.8804C201.866 97.5538 201.388 97.1086 201.048 96.5449C200.711 95.9777 200.542 95.3332 200.542 94.6113V87.6193H201.821V94.5081C201.821 95.0238 201.935 95.4827 202.161 95.8849C202.388 96.2836 202.711 96.5982 203.131 96.8285C203.554 97.0554 204.059 97.1688 204.647 97.1688C205.235 97.1688 205.74 97.0554 206.163 96.8285C206.586 96.5982 206.909 96.2836 207.132 95.8849C207.359 95.4827 207.472 95.0238 207.472 94.5081V87.6193ZM211.305 98.1794V87.6193H212.584V97.0451H217.492V98.1794H211.305ZM218.069 87.6193H219.533L222.462 92.5487H222.586L225.514 87.6193H226.979L223.163 93.8275V98.1794H221.884V93.8275L218.069 87.6193Z" fill="#8DA291"/>
<path d="M80.308 99.117L69.644 93.785L80.308 88.453V99.117Z" fill="#8DA291"/>
<path d="M338.737 99.117L349.401 93.785L338.737 88.453V99.117Z" fill="#8DA291"/>
<path d="M198.46 114.64V123.44H197.395V115.757H197.343L195.195 117.184V116.101L197.395 114.64H198.46Z" fill="#8DA291"/>
<path d="M236.971 123.44V122.667L239.876 119.487C240.217 119.115 240.497 118.791 240.718 118.516C240.939 118.238 241.102 117.977 241.208 117.734C241.317 117.488 241.371 117.23 241.371 116.961C241.371 116.651 241.297 116.383 241.148 116.157C241.002 115.931 240.801 115.756 240.546 115.633C240.291 115.51 240.005 115.448 239.687 115.448C239.349 115.448 239.054 115.518 238.802 115.659C238.552 115.796 238.359 115.989 238.222 116.239C238.087 116.488 238.02 116.78 238.02 117.115H237.006C237.006 116.6 237.124 116.147 237.362 115.757C237.6 115.368 237.924 115.064 238.333 114.846C238.746 114.629 239.208 114.52 239.721 114.52C240.237 114.52 240.694 114.629 241.092 114.846C241.49 115.064 241.802 115.358 242.029 115.727C242.255 116.097 242.368 116.508 242.368 116.961C242.368 117.284 242.309 117.601 242.192 117.91C242.077 118.217 241.877 118.559 241.59 118.937C241.307 119.312 240.913 119.771 240.409 120.312L238.432 122.426V122.495H242.523V123.44H236.971Z" fill="#8DA291"/>
<path d="M281.548 123.561C280.981 123.561 280.475 123.463 280.031 123.268C279.59 123.074 279.239 122.803 278.979 122.456C278.721 122.107 278.58 121.701 278.557 121.24H279.64C279.663 121.524 279.761 121.769 279.932 121.975C280.104 122.178 280.329 122.336 280.607 122.448C280.885 122.559 281.193 122.615 281.531 122.615C281.909 122.615 282.244 122.549 282.536 122.418C282.829 122.286 283.058 122.103 283.224 121.868C283.39 121.633 283.473 121.361 283.473 121.051C283.473 120.728 283.393 120.442 283.233 120.196C283.072 119.947 282.837 119.752 282.528 119.612C282.218 119.471 281.84 119.401 281.393 119.401H280.689V118.456H281.393C281.743 118.456 282.049 118.393 282.313 118.267C282.579 118.141 282.787 117.963 282.936 117.734C283.088 117.505 283.164 117.236 283.164 116.926C283.164 116.628 283.098 116.369 282.966 116.148C282.834 115.928 282.648 115.756 282.408 115.633C282.17 115.51 281.889 115.448 281.565 115.448C281.262 115.448 280.975 115.504 280.706 115.616C280.44 115.724 280.222 115.883 280.053 116.093C279.884 116.299 279.792 116.548 279.778 116.84H278.747C278.764 116.379 278.903 115.975 279.163 115.628C279.424 115.279 279.765 115.007 280.186 114.812C280.61 114.617 281.075 114.52 281.583 114.52C282.127 114.52 282.594 114.63 282.983 114.851C283.373 115.068 283.672 115.356 283.881 115.714C284.09 116.072 284.195 116.459 284.195 116.875C284.195 117.37 284.065 117.793 283.804 118.142C283.546 118.492 283.195 118.734 282.751 118.868V118.937C283.307 119.029 283.741 119.265 284.053 119.646C284.365 120.024 284.522 120.493 284.522 121.051C284.522 121.53 284.391 121.959 284.131 122.34C283.873 122.718 283.52 123.016 283.074 123.234C282.627 123.452 282.118 123.561 281.548 123.561Z" fill="#8DA291"/>
<path d="M319.972 121.636V120.759L323.839 114.64H324.475V115.998H324.045L321.123 120.622V120.69H326.331V121.636H319.972ZM324.114 123.44V121.369V120.961V114.64H325.128V123.44H324.114Z" fill="#8DA291"/>
<path d="M73.3042 158.891C72.8 158.891 72.346 158.79 71.9421 158.59C71.5381 158.389 71.2144 158.114 70.9709 157.765C70.7275 157.415 70.5942 157.017 70.5713 156.57H71.6026C71.6427 156.969 71.8232 157.298 72.144 157.559C72.4677 157.816 72.8544 157.945 73.3042 157.945C73.6651 157.945 73.986 157.861 74.2667 157.692C74.5503 157.523 74.7723 157.291 74.9327 156.996C75.096 156.698 75.1777 156.361 75.1777 155.986C75.1777 155.602 75.0931 155.26 74.9241 154.959C74.758 154.655 74.5288 154.416 74.2366 154.241C73.9444 154.067 73.6107 153.978 73.2354 153.975C72.9662 153.972 72.6897 154.014 72.4061 154.1C72.1225 154.183 71.8891 154.29 71.7057 154.422L70.7088 154.302L71.2417 149.97H75.8136V150.916H72.1354L71.826 153.511H71.8776C72.0581 153.368 72.2844 153.249 72.5565 153.154C72.8287 153.06 73.1123 153.012 73.4073 153.012C73.9459 153.012 74.4257 153.141 74.8468 153.399C75.2708 153.654 75.6031 154.004 75.8437 154.448C76.0872 154.892 76.2089 155.399 76.2089 155.969C76.2089 156.53 76.0829 157.032 75.8308 157.473C75.5816 157.911 75.2378 158.258 74.7995 158.513C74.3612 158.765 73.8628 158.891 73.3042 158.891Z" fill="#8DA291"/>
<path d="M115.081 158.891C114.72 158.885 114.359 158.816 113.998 158.684C113.637 158.553 113.307 158.331 113.009 158.018C112.712 157.703 112.472 157.278 112.292 156.742C112.111 156.204 112.021 155.528 112.021 154.714C112.021 153.935 112.094 153.245 112.24 152.643C112.386 152.039 112.598 151.53 112.876 151.118C113.154 150.702 113.489 150.387 113.882 150.172C114.277 149.957 114.722 149.85 115.218 149.85C115.711 149.85 116.149 149.949 116.533 150.146C116.92 150.341 117.235 150.613 117.478 150.963C117.722 151.312 117.879 151.715 117.951 152.17H116.902C116.805 151.775 116.616 151.447 116.335 151.186C116.055 150.926 115.682 150.795 115.218 150.795C114.536 150.795 113.999 151.092 113.607 151.685C113.217 152.278 113.021 153.11 113.018 154.181H113.087C113.247 153.938 113.438 153.73 113.658 153.558C113.882 153.383 114.128 153.249 114.397 153.154C114.667 153.06 114.952 153.012 115.252 153.012C115.757 153.012 116.218 153.139 116.636 153.391C117.054 153.64 117.389 153.985 117.642 154.426C117.894 154.864 118.02 155.367 118.02 155.934C118.02 156.479 117.898 156.977 117.654 157.43C117.411 157.879 117.069 158.238 116.627 158.504C116.189 158.768 115.674 158.896 115.081 158.891ZM115.081 157.945C115.441 157.945 115.765 157.855 116.052 157.675C116.341 157.494 116.569 157.252 116.735 156.948C116.904 156.645 116.988 156.307 116.988 155.934C116.988 155.571 116.907 155.24 116.743 154.942C116.583 154.641 116.361 154.402 116.077 154.224C115.797 154.047 115.476 153.958 115.115 153.958C114.843 153.958 114.589 154.012 114.354 154.121C114.119 154.227 113.913 154.373 113.736 154.559C113.561 154.746 113.423 154.959 113.323 155.2C113.223 155.437 113.173 155.688 113.173 155.952C113.173 156.301 113.254 156.628 113.418 156.931C113.584 157.235 113.81 157.48 114.097 157.666C114.386 157.852 114.714 157.945 115.081 157.945Z" fill="#8DA291"/>
<path d="M154.037 158.77L157.973 150.984V150.916H153.436V149.97H159.073V150.967L155.154 158.77H154.037Z" fill="#8DA291"/>
<path d="M198.185 158.891C197.595 158.891 197.074 158.786 196.621 158.577C196.172 158.365 195.821 158.074 195.569 157.705C195.317 157.332 195.192 156.908 195.195 156.433C195.192 156.06 195.265 155.717 195.414 155.402C195.563 155.084 195.766 154.819 196.024 154.607C196.285 154.392 196.576 154.256 196.896 154.198V154.147C196.475 154.038 196.14 153.802 195.891 153.438C195.642 153.071 195.518 152.654 195.521 152.187C195.518 151.741 195.632 151.341 195.861 150.989C196.09 150.636 196.405 150.358 196.806 150.155C197.21 149.952 197.67 149.85 198.185 149.85C198.695 149.85 199.151 149.952 199.552 150.155C199.953 150.358 200.268 150.636 200.497 150.989C200.729 151.341 200.847 151.741 200.85 152.187C200.847 152.654 200.719 153.071 200.467 153.438C200.218 153.802 199.887 154.038 199.475 154.147V154.198C199.792 154.256 200.079 154.392 200.334 154.607C200.589 154.819 200.792 155.084 200.944 155.402C201.096 155.717 201.173 156.06 201.176 156.433C201.173 156.908 201.044 157.332 200.789 157.705C200.537 158.074 200.186 158.365 199.737 158.577C199.29 158.786 198.773 158.891 198.185 158.891ZM198.185 157.945C198.584 157.945 198.927 157.881 199.217 157.752C199.506 157.623 199.729 157.441 199.887 157.206C200.045 156.971 200.125 156.696 200.128 156.381C200.125 156.049 200.039 155.755 199.87 155.5C199.701 155.245 199.47 155.045 199.178 154.899C198.889 154.753 198.558 154.68 198.185 154.68C197.81 154.68 197.475 154.753 197.18 154.899C196.888 155.045 196.657 155.245 196.488 155.5C196.322 155.755 196.24 156.049 196.243 156.381C196.24 156.696 196.316 156.971 196.471 157.206C196.629 157.441 196.853 157.623 197.146 157.752C197.438 157.881 197.784 157.945 198.185 157.945ZM198.185 153.769C198.501 153.769 198.78 153.706 199.023 153.58C199.27 153.454 199.463 153.277 199.603 153.051C199.744 152.825 199.815 152.56 199.818 152.256C199.815 151.958 199.745 151.699 199.608 151.478C199.47 151.255 199.28 151.083 199.036 150.963C198.793 150.84 198.509 150.778 198.185 150.778C197.856 150.778 197.568 150.84 197.322 150.963C197.075 151.083 196.885 151.255 196.75 151.478C196.616 151.699 196.55 151.958 196.553 152.256C196.55 152.56 196.617 152.825 196.755 153.051C196.895 153.277 197.088 153.454 197.335 153.58C197.581 153.706 197.865 153.769 198.185 153.769Z" fill="#8DA291"/>
<path d="M239.773 149.85C240.134 149.853 240.495 149.922 240.856 150.056C241.217 150.191 241.546 150.414 241.844 150.727C242.142 151.036 242.381 151.458 242.561 151.994C242.742 152.53 242.832 153.202 242.832 154.009C242.832 154.791 242.758 155.486 242.609 156.093C242.463 156.698 242.251 157.208 241.973 157.623C241.698 158.038 241.363 158.354 240.967 158.568C240.575 158.783 240.131 158.891 239.635 158.891C239.143 158.891 238.703 158.793 238.316 158.599C237.932 158.401 237.617 158.127 237.371 157.778C237.127 157.425 236.971 157.017 236.902 156.553H237.951C238.045 156.957 238.233 157.291 238.514 157.554C238.797 157.815 239.171 157.945 239.635 157.945C240.314 157.945 240.85 157.649 241.242 157.056C241.638 156.463 241.835 155.625 241.835 154.542H241.767C241.606 154.783 241.416 154.991 241.195 155.165C240.974 155.34 240.73 155.475 240.46 155.569C240.191 155.664 239.905 155.711 239.601 155.711C239.097 155.711 238.634 155.586 238.213 155.337C237.795 155.085 237.46 154.74 237.207 154.302C236.958 153.86 236.834 153.356 236.834 152.789C236.834 152.25 236.954 151.758 237.195 151.311C237.438 150.861 237.779 150.503 238.217 150.237C238.658 149.97 239.177 149.841 239.773 149.85ZM239.773 150.795C239.412 150.795 239.087 150.885 238.797 151.066C238.511 151.244 238.283 151.484 238.114 151.788C237.948 152.089 237.865 152.422 237.865 152.789C237.865 153.156 237.945 153.489 238.106 153.79C238.269 154.088 238.491 154.326 238.772 154.504C239.055 154.678 239.377 154.766 239.738 154.766C240.011 154.766 240.264 154.713 240.499 154.607C240.734 154.498 240.939 154.35 241.113 154.164C241.291 153.975 241.43 153.762 241.53 153.524C241.63 153.283 241.681 153.033 241.681 152.772C241.681 152.428 241.598 152.106 241.431 151.805C241.268 151.504 241.042 151.261 240.752 151.075C240.466 150.888 240.139 150.795 239.773 150.795Z" fill="#8DA291"/>
<path d="M281.668 149.97V158.77H280.603V151.087H280.551L278.403 152.514V151.431L280.603 149.97H281.668ZM287.07 158.891C286.422 158.891 285.871 158.715 285.415 158.362C284.96 158.007 284.612 157.493 284.371 156.82C284.131 156.144 284.01 155.327 284.01 154.37C284.01 153.419 284.131 152.607 284.371 151.934C284.615 151.258 284.964 150.742 285.42 150.387C285.878 150.029 286.428 149.85 287.07 149.85C287.711 149.85 288.26 150.029 288.715 150.387C289.174 150.742 289.523 151.258 289.764 151.934C290.007 152.607 290.129 153.419 290.129 154.37C290.129 155.327 290.009 156.144 289.768 156.82C289.528 157.493 289.18 158.007 288.724 158.362C288.269 158.715 287.717 158.891 287.07 158.891ZM287.07 157.945C287.711 157.945 288.21 157.636 288.565 157.017C288.92 156.398 289.098 155.516 289.098 154.37C289.098 153.608 289.016 152.959 288.853 152.424C288.693 151.888 288.46 151.48 288.157 151.199C287.856 150.918 287.494 150.778 287.07 150.778C286.434 150.778 285.937 151.092 285.579 151.719C285.221 152.344 285.042 153.227 285.042 154.37C285.042 155.132 285.122 155.78 285.282 156.313C285.443 156.845 285.673 157.251 285.974 157.529C286.278 157.806 286.643 157.945 287.07 157.945Z" fill="#8DA291"/>
<path d="M323.272 149.97V158.77H322.206V151.087H322.155L320.006 152.514V151.431L322.206 149.97H323.272ZM328.897 149.97V158.77H327.831V151.087H327.779L325.631 152.514V151.431L327.831 149.97H328.897Z" fill="#8DA291"/>
<path d="M73.6479 185.299V194.099H72.5823V186.417H72.5307L70.3823 187.843V186.76L72.5823 185.299H73.6479ZM76.1788 194.099V193.326L79.0836 190.146C79.4245 189.774 79.7052 189.45 79.9258 189.175C80.1464 188.897 80.3096 188.637 80.4156 188.393C80.5245 188.147 80.5789 187.889 80.5789 187.62C80.5789 187.31 80.5044 187.042 80.3555 186.816C80.2094 186.59 80.0089 186.415 79.7539 186.292C79.499 186.169 79.2125 186.107 78.8945 186.107C78.5565 186.107 78.2614 186.177 78.0093 186.318C77.7601 186.455 77.5668 186.649 77.4293 186.898C77.2946 187.147 77.2273 187.439 77.2273 187.774H76.2132C76.2132 187.259 76.3321 186.806 76.5699 186.417C76.8076 186.027 77.1313 185.723 77.541 185.506C77.9535 185.288 78.4161 185.179 78.9289 185.179C79.4445 185.179 79.9014 185.288 80.2996 185.506C80.6978 185.723 81.01 186.017 81.2363 186.386C81.4627 186.756 81.5758 187.167 81.5758 187.62C81.5758 187.943 81.5171 188.26 81.3996 188.569C81.285 188.876 81.0845 189.218 80.7981 189.596C80.5145 189.972 80.1206 190.43 79.6164 190.971L77.6398 193.085V193.154H81.7305V194.099H76.1788Z" fill="#8DA291"/>
<path d="M115.252 185.299V194.099H114.187V186.417H114.135L111.987 187.843V186.76L114.187 185.299H115.252ZM120.757 194.22C120.19 194.22 119.684 194.122 119.24 193.928C118.799 193.733 118.448 193.462 118.187 193.115C117.929 192.766 117.789 192.361 117.766 191.899H118.849C118.872 192.183 118.969 192.428 119.141 192.634C119.313 192.838 119.538 192.995 119.816 193.107C120.094 193.219 120.402 193.274 120.74 193.274C121.118 193.274 121.453 193.209 121.745 193.077C122.037 192.945 122.266 192.762 122.433 192.527C122.599 192.292 122.682 192.02 122.682 191.71C122.682 191.387 122.602 191.102 122.441 190.855C122.281 190.606 122.046 190.411 121.737 190.271C121.427 190.131 121.049 190.06 120.602 190.06H119.897V189.115H120.602C120.952 189.115 121.258 189.052 121.522 188.926C121.788 188.8 121.996 188.622 122.145 188.393C122.297 188.164 122.372 187.895 122.372 187.585C122.372 187.287 122.307 187.028 122.175 186.808C122.043 186.587 121.857 186.415 121.616 186.292C121.378 186.169 121.098 186.107 120.774 186.107C120.47 186.107 120.184 186.163 119.915 186.275C119.648 186.384 119.43 186.543 119.261 186.752C119.092 186.958 119.001 187.207 118.986 187.499H117.955C117.972 187.038 118.111 186.634 118.372 186.288C118.633 185.938 118.974 185.666 119.395 185.471C119.819 185.276 120.284 185.179 120.791 185.179C121.335 185.179 121.802 185.289 122.192 185.51C122.582 185.728 122.881 186.015 123.09 186.374C123.299 186.732 123.404 187.118 123.404 187.534C123.404 188.029 123.273 188.452 123.013 188.801C122.755 189.151 122.404 189.393 121.96 189.528V189.596C122.516 189.688 122.95 189.924 123.262 190.305C123.574 190.683 123.73 191.152 123.73 191.71C123.73 192.189 123.6 192.618 123.339 192.999C123.081 193.378 122.729 193.676 122.282 193.893C121.835 194.111 121.327 194.22 120.757 194.22Z" fill="#8DA291"/>
<path d="M156.856 185.299V194.099H155.79V186.417H155.739L153.59 187.843V186.76L155.79 185.299H156.856ZM159.181 192.295V191.418L163.048 185.299H163.684V186.657H163.254L160.332 191.281V191.349H165.54V192.295H159.181ZM163.323 194.099V192.028V191.62V185.299H164.337V194.099H163.323Z" fill="#8DA291"/>
<path d="M198.46 185.299V194.099H197.395V186.417H197.343L195.195 187.843V186.76L197.395 185.299H198.46ZM203.741 194.22C203.237 194.22 202.783 194.12 202.379 193.919C201.975 193.718 201.652 193.443 201.408 193.094C201.165 192.745 201.031 192.346 201.009 191.899H202.04C202.08 192.298 202.26 192.627 202.581 192.888C202.905 193.146 203.292 193.274 203.741 193.274C204.102 193.274 204.423 193.19 204.704 193.021C204.988 192.852 205.21 192.62 205.37 192.325C205.533 192.027 205.615 191.69 205.615 191.315C205.615 190.931 205.53 190.589 205.361 190.288C205.195 189.984 204.966 189.745 204.674 189.571C204.382 189.396 204.048 189.307 203.673 189.304C203.403 189.301 203.127 189.343 202.843 189.429C202.56 189.512 202.326 189.619 202.143 189.751L201.146 189.631L201.679 185.299H206.251V186.245H202.573L202.263 188.84H202.315C202.495 188.697 202.722 188.578 202.994 188.483C203.266 188.389 203.549 188.342 203.845 188.342C204.383 188.342 204.863 188.47 205.284 188.728C205.708 188.983 206.04 189.333 206.281 189.777C206.524 190.221 206.646 190.728 206.646 191.298C206.646 191.859 206.52 192.361 206.268 192.802C206.019 193.24 205.675 193.587 205.237 193.842C204.798 194.094 204.3 194.22 203.741 194.22Z" fill="#8DA291"/>
<path d="M240.065 185.299V194.099H238.999V186.417H238.948L236.799 187.843V186.76L238.999 185.299H240.065ZM245.518 194.22C245.157 194.214 244.796 194.145 244.435 194.014C244.074 193.882 243.745 193.66 243.447 193.348C243.149 193.032 242.91 192.607 242.729 192.071C242.549 191.533 242.458 190.857 242.458 190.043C242.458 189.264 242.531 188.574 242.677 187.972C242.824 187.368 243.036 186.859 243.313 186.447C243.591 186.031 243.926 185.716 244.319 185.501C244.714 185.286 245.16 185.179 245.655 185.179C246.148 185.179 246.586 185.278 246.97 185.476C247.357 185.67 247.672 185.942 247.915 186.292C248.159 186.641 248.317 187.044 248.388 187.499H247.34C247.242 187.104 247.053 186.776 246.772 186.515C246.492 186.255 246.119 186.124 245.655 186.124C244.973 186.124 244.436 186.421 244.044 187.014C243.654 187.607 243.458 188.439 243.455 189.51H243.524C243.684 189.267 243.875 189.059 244.095 188.887C244.319 188.713 244.565 188.578 244.835 188.483C245.104 188.389 245.389 188.342 245.69 188.342C246.194 188.342 246.655 188.468 247.073 188.72C247.491 188.969 247.827 189.314 248.079 189.755C248.331 190.194 248.457 190.696 248.457 191.264C248.457 191.808 248.335 192.306 248.092 192.759C247.848 193.209 247.506 193.567 247.065 193.833C246.626 194.097 246.111 194.226 245.518 194.22ZM245.518 193.274C245.879 193.274 246.202 193.184 246.489 193.004C246.778 192.823 247.006 192.581 247.172 192.278C247.341 191.974 247.426 191.636 247.426 191.264C247.426 190.9 247.344 190.569 247.181 190.271C247.02 189.97 246.798 189.731 246.515 189.553C246.234 189.376 245.913 189.287 245.552 189.287C245.28 189.287 245.026 189.341 244.792 189.45C244.557 189.556 244.35 189.702 244.173 189.888C243.998 190.075 243.861 190.288 243.76 190.529C243.66 190.766 243.61 191.017 243.61 191.281C243.61 191.63 243.692 191.957 243.855 192.26C244.021 192.564 244.247 192.809 244.534 192.995C244.823 193.181 245.151 193.274 245.518 193.274Z" fill="#8DA291"/>
<path d="M281.668 185.299V194.099H280.603V186.417H280.551L278.403 187.843V186.76L280.603 185.299H281.668ZM284.474 194.099L288.41 186.313V186.245H283.873V185.299H289.51V186.296L285.592 194.099H284.474Z" fill="#8DA291"/>
<path d="M323.272 185.299V194.099H322.206V186.417H322.155L320.006 187.843V186.76L322.206 185.299H323.272ZM328.622 194.22C328.032 194.22 327.51 194.115 327.058 193.906C326.608 193.694 326.257 193.403 326.005 193.034C325.753 192.661 325.628 192.237 325.631 191.762C325.628 191.39 325.701 191.046 325.85 190.731C325.999 190.413 326.202 190.148 326.46 189.936C326.721 189.721 327.012 189.585 327.333 189.528V189.476C326.911 189.367 326.576 189.131 326.327 188.767C326.078 188.4 325.955 187.984 325.958 187.517C325.955 187.07 326.068 186.67 326.297 186.318C326.526 185.965 326.841 185.687 327.242 185.484C327.646 185.281 328.106 185.179 328.622 185.179C329.132 185.179 329.587 185.281 329.988 185.484C330.389 185.687 330.704 185.965 330.933 186.318C331.165 186.67 331.283 187.07 331.286 187.517C331.283 187.984 331.155 188.4 330.903 188.767C330.654 189.131 330.323 189.367 329.911 189.476V189.528C330.229 189.585 330.515 189.721 330.77 189.936C331.025 190.148 331.228 190.413 331.38 190.731C331.532 191.046 331.609 191.39 331.612 191.762C331.609 192.237 331.481 192.661 331.226 193.034C330.974 193.403 330.623 193.694 330.173 193.906C329.726 194.115 329.209 194.22 328.622 194.22ZM328.622 193.274C329.02 193.274 329.364 193.21 329.653 193.081C329.942 192.952 330.166 192.77 330.323 192.535C330.481 192.3 330.561 192.025 330.564 191.71C330.561 191.378 330.475 191.084 330.306 190.83C330.137 190.575 329.906 190.374 329.614 190.228C329.325 190.082 328.994 190.009 328.622 190.009C328.246 190.009 327.911 190.082 327.616 190.228C327.324 190.374 327.093 190.575 326.924 190.83C326.758 191.084 326.677 191.378 326.679 191.71C326.677 192.025 326.752 192.3 326.907 192.535C327.065 192.77 327.29 192.952 327.582 193.081C327.874 193.21 328.221 193.274 328.622 193.274ZM328.622 189.098C328.937 189.098 329.216 189.035 329.46 188.909C329.706 188.783 329.899 188.607 330.04 188.38C330.18 188.154 330.252 187.889 330.255 187.585C330.252 187.287 330.181 187.028 330.044 186.808C329.906 186.584 329.716 186.412 329.472 186.292C329.229 186.169 328.945 186.107 328.622 186.107C328.292 186.107 328.004 186.169 327.758 186.292C327.512 186.412 327.321 186.584 327.186 186.808C327.052 187.028 326.986 187.287 326.989 187.585C326.986 187.889 327.053 188.154 327.191 188.38C327.331 188.607 327.525 188.783 327.771 188.909C328.017 189.035 328.301 189.098 328.622 189.098Z" fill="#8DA291"/>
<path d="M73.6479 220.628V229.429H72.5823V221.746H72.5307L70.3823 223.172V222.089L72.5823 220.628H73.6479ZM78.9805 220.508C79.3414 220.511 79.7023 220.58 80.0633 220.714C80.4242 220.849 80.7537 221.072 81.0516 221.385C81.3495 221.694 81.5887 222.117 81.7692 222.652C81.9496 223.188 82.0399 223.86 82.0399 224.668C82.0399 225.45 81.9654 226.144 81.8164 226.752C81.6703 227.356 81.4584 227.866 81.1805 228.281C80.9055 228.697 80.5703 229.012 80.175 229.227C79.7825 229.441 79.3385 229.549 78.8429 229.549C78.3502 229.549 77.9105 229.452 77.5238 229.257C77.1399 229.059 76.8248 228.785 76.5785 228.436C76.335 228.084 76.1788 227.675 76.1101 227.211H77.1585C77.2531 227.615 77.4407 227.949 77.7214 228.213C78.005 228.473 78.3789 228.604 78.8429 228.604C79.5219 228.604 80.0576 228.307 80.45 227.714C80.8453 227.121 81.043 226.283 81.043 225.2H80.9742C80.8138 225.441 80.6233 225.649 80.4027 225.823C80.1822 225.998 79.9372 226.133 79.668 226.227C79.3987 226.322 79.1122 226.369 78.8086 226.369C78.3044 226.369 77.8418 226.245 77.4207 225.995C77.0024 225.743 76.6673 225.398 76.4152 224.96C76.166 224.519 76.0413 224.014 76.0413 223.447C76.0413 222.909 76.1617 222.416 76.4023 221.969C76.6458 221.519 76.9867 221.161 77.425 220.895C77.8661 220.628 78.3846 220.5 78.9805 220.508ZM78.9805 221.453C78.6195 221.453 78.2944 221.544 78.005 221.724C77.7186 221.902 77.4908 222.142 77.3218 222.446C77.1557 222.747 77.0726 223.081 77.0726 223.447C77.0726 223.814 77.1528 224.148 77.3132 224.448C77.4765 224.746 77.6985 224.984 77.9793 225.162C78.2629 225.336 78.5851 225.424 78.9461 225.424C79.2182 225.424 79.4717 225.371 79.7066 225.265C79.9415 225.156 80.1464 225.008 80.3211 224.822C80.4987 224.633 80.6376 224.42 80.7379 224.182C80.8382 223.941 80.8883 223.691 80.8883 223.43C80.8883 223.086 80.8052 222.764 80.6391 222.463C80.4758 222.162 80.2495 221.919 79.9602 221.733C79.6737 221.547 79.3471 221.453 78.9805 221.453Z" fill="#8DA291"/>
<path d="M112.159 229.429V228.655L115.063 225.475C115.404 225.103 115.685 224.779 115.906 224.504C116.126 224.226 116.289 223.966 116.395 223.722C116.504 223.476 116.559 223.218 116.559 222.949C116.559 222.639 116.484 222.372 116.335 222.145C116.189 221.919 115.989 221.744 115.734 221.621C115.479 221.498 115.192 221.436 114.874 221.436C114.536 221.436 114.241 221.506 113.989 221.647C113.74 221.784 113.547 221.978 113.409 222.227C113.274 222.476 113.207 222.768 113.207 223.103H112.193C112.193 222.588 112.312 222.135 112.55 221.746C112.787 221.356 113.111 221.052 113.521 220.835C113.933 220.617 114.396 220.508 114.909 220.508C115.424 220.508 115.881 220.617 116.279 220.835C116.678 221.052 116.99 221.346 117.216 221.716C117.442 222.085 117.556 222.496 117.556 222.949C117.556 223.272 117.497 223.589 117.379 223.898C117.265 224.205 117.064 224.547 116.778 224.925C116.494 225.301 116.1 225.759 115.596 226.3L113.62 228.415V228.483H117.71V229.429H112.159ZM122.355 229.549C121.708 229.549 121.156 229.373 120.701 229.02C120.245 228.665 119.897 228.151 119.657 227.478C119.416 226.802 119.296 225.985 119.296 225.029C119.296 224.077 119.416 223.265 119.657 222.592C119.9 221.916 120.25 221.4 120.705 221.045C121.164 220.687 121.714 220.508 122.355 220.508C122.997 220.508 123.546 220.687 124.001 221.045C124.459 221.4 124.809 221.916 125.049 222.592C125.293 223.265 125.415 224.077 125.415 225.029C125.415 225.985 125.294 226.802 125.054 227.478C124.813 228.151 124.465 228.665 124.01 229.02C123.554 229.373 123.003 229.549 122.355 229.549ZM122.355 228.604C122.997 228.604 123.495 228.294 123.851 227.675C124.206 227.057 124.383 226.174 124.383 225.029C124.383 224.267 124.302 223.618 124.139 223.082C123.978 222.546 123.746 222.138 123.442 221.857C123.142 221.577 122.779 221.436 122.355 221.436C121.719 221.436 121.222 221.75 120.864 222.377C120.506 223.002 120.327 223.886 120.327 225.029C120.327 225.791 120.407 226.438 120.568 226.971C120.728 227.504 120.959 227.909 121.26 228.187C121.563 228.465 121.928 228.604 122.355 228.604Z" fill="#8DA291"/>
<path d="M153.762 229.429V228.655L156.667 225.475C157.008 225.103 157.289 224.779 157.509 224.504C157.73 224.226 157.893 223.966 157.999 223.722C158.108 223.476 158.162 223.218 158.162 222.949C158.162 222.639 158.088 222.372 157.939 222.145C157.793 221.919 157.592 221.744 157.337 221.621C157.082 221.498 156.796 221.436 156.478 221.436C156.14 221.436 155.845 221.506 155.593 221.647C155.343 221.784 155.15 221.978 155.013 222.227C154.878 222.476 154.811 222.768 154.811 223.103H153.797C153.797 222.588 153.915 222.135 154.153 221.746C154.391 221.356 154.715 221.052 155.124 220.835C155.537 220.617 155.999 220.508 156.512 220.508C157.028 220.508 157.485 220.617 157.883 220.835C158.281 221.052 158.593 221.346 158.82 221.716C159.046 222.085 159.159 222.496 159.159 222.949C159.159 223.272 159.1 223.589 158.983 223.898C158.868 224.205 158.668 224.547 158.381 224.925C158.098 225.301 157.704 225.759 157.2 226.3L155.223 228.415V228.483H159.314V229.429H153.762ZM164.182 220.628V229.429H163.117V221.746H163.065L160.917 223.172V222.089L163.117 220.628H164.182Z" fill="#8DA291"/>
<path d="M195.367 229.429V228.655L198.271 225.475C198.612 225.103 198.893 224.779 199.114 224.504C199.334 224.226 199.497 223.966 199.603 223.722C199.712 223.476 199.767 223.218 199.767 222.949C199.767 222.639 199.692 222.372 199.543 222.145C199.397 221.919 199.197 221.744 198.942 221.621C198.687 221.498 198.4 221.436 198.082 221.436C197.744 221.436 197.449 221.506 197.197 221.647C196.948 221.784 196.755 221.978 196.617 222.227C196.482 222.476 196.415 222.768 196.415 223.103H195.401C195.401 222.588 195.52 222.135 195.758 221.746C195.995 221.356 196.319 221.052 196.729 220.835C197.141 220.617 197.604 220.508 198.117 220.508C198.632 220.508 199.089 220.617 199.487 220.835C199.886 221.052 200.198 221.346 200.424 221.716C200.65 222.085 200.764 222.496 200.764 222.949C200.764 223.272 200.705 223.589 200.587 223.898C200.473 224.205 200.272 224.547 199.986 224.925C199.702 225.301 199.308 225.759 198.804 226.3L196.828 228.415V228.483H200.918V229.429H195.367ZM202.693 229.429V228.655L205.598 225.475C205.939 225.103 206.219 224.779 206.44 224.504C206.66 224.226 206.824 223.966 206.93 223.722C207.039 223.476 207.093 223.218 207.093 222.949C207.093 222.639 207.019 222.372 206.87 222.145C206.723 221.919 206.523 221.744 206.268 221.621C206.013 221.498 205.727 221.436 205.409 221.436C205.071 221.436 204.776 221.506 204.523 221.647C204.274 221.784 204.081 221.978 203.943 222.227C203.809 222.476 203.741 222.768 203.741 223.103H202.727C202.727 222.588 202.846 222.135 203.084 221.746C203.322 221.356 203.645 221.052 204.055 220.835C204.468 220.617 204.93 220.508 205.443 220.508C205.959 220.508 206.416 220.617 206.814 220.835C207.212 221.052 207.524 221.346 207.75 221.716C207.977 222.085 208.09 222.496 208.09 222.949C208.09 223.272 208.031 223.589 207.914 223.898C207.799 224.205 207.599 224.547 207.312 224.925C207.029 225.301 206.635 225.759 206.13 226.3L204.154 228.415V228.483H208.245V229.429H202.693Z" fill="#8DA291"/>
<path d="M236.971 229.429V228.655L239.876 225.475C240.217 225.103 240.497 224.779 240.718 224.504C240.939 224.226 241.102 223.966 241.208 223.722C241.317 223.476 241.371 223.218 241.371 222.949C241.371 222.639 241.297 222.372 241.148 222.145C241.002 221.919 240.801 221.744 240.546 221.621C240.291 221.498 240.005 221.436 239.687 221.436C239.349 221.436 239.054 221.506 238.802 221.647C238.552 221.784 238.359 221.978 238.222 222.227C238.087 222.476 238.02 222.768 238.02 223.103H237.006C237.006 222.588 237.124 222.135 237.362 221.746C237.6 221.356 237.924 221.052 238.333 220.835C238.746 220.617 239.208 220.508 239.721 220.508C240.237 220.508 240.694 220.617 241.092 220.835C241.49 221.052 241.802 221.346 242.029 221.716C242.255 222.085 242.368 222.496 242.368 222.949C242.368 223.272 242.309 223.589 242.192 223.898C242.077 224.205 241.877 224.547 241.59 224.925C241.307 225.301 240.913 225.759 240.409 226.3L238.432 228.415V228.483H242.523V229.429H236.971ZM247.271 229.549C246.704 229.549 246.198 229.452 245.754 229.257C245.313 229.062 244.962 228.791 244.701 228.445C244.444 228.095 244.303 227.69 244.28 227.229H245.363C245.386 227.512 245.483 227.757 245.655 227.963C245.827 228.167 246.052 228.324 246.33 228.436C246.608 228.548 246.916 228.604 247.254 228.604C247.632 228.604 247.967 228.538 248.259 228.406C248.551 228.274 248.781 228.091 248.947 227.856C249.113 227.621 249.196 227.349 249.196 227.039C249.196 226.716 249.116 226.431 248.955 226.184C248.795 225.935 248.56 225.74 248.251 225.6C247.941 225.46 247.563 225.389 247.116 225.389H246.412V224.444H247.116C247.466 224.444 247.772 224.381 248.036 224.255C248.302 224.129 248.51 223.951 248.659 223.722C248.811 223.493 248.887 223.224 248.887 222.914C248.887 222.616 248.821 222.357 248.689 222.137C248.557 221.916 248.371 221.744 248.13 221.621C247.893 221.498 247.612 221.436 247.288 221.436C246.984 221.436 246.698 221.492 246.429 221.604C246.162 221.713 245.945 221.872 245.776 222.081C245.607 222.287 245.515 222.536 245.501 222.828H244.469C244.486 222.367 244.625 221.963 244.886 221.617C245.147 221.267 245.488 220.995 245.909 220.8C246.333 220.606 246.798 220.508 247.305 220.508C247.85 220.508 248.317 220.618 248.706 220.839C249.096 221.057 249.395 221.345 249.604 221.703C249.813 222.061 249.918 222.447 249.918 222.863C249.918 223.358 249.787 223.781 249.527 224.13C249.269 224.48 248.918 224.722 248.474 224.857V224.925C249.03 225.017 249.464 225.253 249.776 225.634C250.088 226.013 250.244 226.481 250.244 227.039C250.244 227.518 250.114 227.948 249.853 228.329C249.596 228.707 249.243 229.005 248.796 229.222C248.349 229.44 247.841 229.549 247.271 229.549Z" fill="#8DA291"/>
<path d="M278.575 229.429V228.655L281.479 225.475C281.82 225.103 282.101 224.779 282.322 224.504C282.542 224.226 282.705 223.966 282.811 223.722C282.92 223.476 282.975 223.218 282.975 222.949C282.975 222.639 282.9 222.372 282.751 222.145C282.605 221.919 282.405 221.744 282.15 221.621C281.895 221.498 281.608 221.436 281.29 221.436C280.952 221.436 280.657 221.506 280.405 221.647C280.156 221.784 279.963 221.978 279.825 222.227C279.69 222.476 279.623 222.768 279.623 223.103H278.609C278.609 222.588 278.728 222.135 278.966 221.746C279.203 221.356 279.527 221.052 279.937 220.835C280.349 220.617 280.812 220.508 281.325 220.508C281.84 220.508 282.297 220.617 282.695 220.835C283.094 221.052 283.406 221.346 283.632 221.716C283.858 222.085 283.972 222.496 283.972 222.949C283.972 223.272 283.913 223.589 283.795 223.898C283.681 224.205 283.48 224.547 283.194 224.925C282.91 225.301 282.516 225.759 282.012 226.3L280.036 228.415V228.483H284.126V229.429H278.575ZM285.506 227.624V226.747L289.373 220.628H290.009V221.986H289.579L286.657 226.61V226.679H291.865V227.624H285.506ZM289.648 229.429V227.357V226.949V220.628H290.662V229.429H289.648Z" fill="#8DA291"/>
<path d="M320.178 229.429V228.655L323.083 225.475C323.424 225.103 323.705 224.779 323.925 224.504C324.146 224.226 324.309 223.966 324.415 223.722C324.524 223.476 324.578 223.218 324.578 222.949C324.578 222.639 324.504 222.372 324.355 222.145C324.209 221.919 324.008 221.744 323.753 221.621C323.498 221.498 323.212 221.436 322.894 221.436C322.556 221.436 322.261 221.506 322.009 221.647C321.759 221.784 321.566 221.978 321.429 222.227C321.294 222.476 321.227 222.768 321.227 223.103H320.213C320.213 222.588 320.331 222.135 320.569 221.746C320.807 221.356 321.131 221.052 321.54 220.835C321.953 220.617 322.415 220.508 322.928 220.508C323.444 220.508 323.901 220.617 324.299 220.835C324.697 221.052 325.009 221.346 325.236 221.716C325.462 222.085 325.575 222.496 325.575 222.949C325.575 223.272 325.516 223.589 325.399 223.898C325.284 224.205 325.084 224.547 324.797 224.925C324.514 225.301 324.12 225.759 323.616 226.3L321.639 228.415V228.483H325.73V229.429H320.178ZM330.255 229.549C329.75 229.549 329.296 229.449 328.892 229.248C328.488 229.048 328.165 228.773 327.921 228.423C327.678 228.074 327.545 227.675 327.522 227.229H328.553C328.593 227.627 328.773 227.956 329.094 228.217C329.418 228.475 329.805 228.604 330.255 228.604C330.615 228.604 330.936 228.519 331.217 228.35C331.501 228.181 331.723 227.949 331.883 227.654C332.046 227.356 332.128 227.019 332.128 226.644C332.128 226.26 332.043 225.918 331.874 225.617C331.708 225.314 331.479 225.074 331.187 224.9C330.895 224.725 330.561 224.636 330.186 224.633C329.916 224.63 329.64 224.672 329.356 224.758C329.073 224.841 328.839 224.948 328.656 225.08L327.659 224.96L328.192 220.628H332.764V221.574H329.086L328.776 224.169H328.828C329.008 224.026 329.235 223.907 329.507 223.812C329.779 223.718 330.063 223.671 330.358 223.671C330.896 223.671 331.376 223.8 331.797 224.057C332.221 224.312 332.553 224.662 332.794 225.106C333.037 225.55 333.159 226.057 333.159 226.627C333.159 227.188 333.033 227.69 332.781 228.131C332.532 228.569 332.188 228.916 331.75 229.171C331.312 229.423 330.813 229.549 330.255 229.549Z" fill="#8DA291"/>
<path d="M70.5541 264.758V263.984L73.4589 260.804C73.7998 260.432 74.0805 260.108 74.3011 259.833C74.5217 259.556 74.6849 259.295 74.7909 259.051C74.8998 258.805 74.9542 258.547 74.9542 258.278C74.9542 257.969 74.8797 257.701 74.7308 257.474C74.5847 257.248 74.3842 257.073 74.1292 256.95C73.8742 256.827 73.5878 256.765 73.2698 256.765C72.9318 256.765 72.6367 256.836 72.3846 256.976C72.1354 257.113 71.9421 257.307 71.8046 257.556C71.6699 257.805 71.6026 258.097 71.6026 258.433H70.5885C70.5885 257.917 70.7074 257.464 70.9452 257.075C71.1829 256.685 71.5066 256.382 71.9163 256.164C72.3288 255.946 72.7914 255.837 73.3042 255.837C73.8198 255.837 74.2767 255.946 74.6749 256.164C75.0731 256.382 75.3853 256.675 75.6116 257.045C75.838 257.414 75.9511 257.825 75.9511 258.278C75.9511 258.602 75.8924 258.918 75.7749 259.228C75.6603 259.534 75.4598 259.876 75.1734 260.254C74.8898 260.63 74.4959 261.088 73.9917 261.63L72.0151 263.744V263.812H76.1058V264.758H70.5541ZM80.8024 264.878C80.4414 264.872 80.0805 264.804 79.7195 264.672C79.3586 264.54 79.0292 264.318 78.7312 264.006C78.4333 263.691 78.1941 263.265 78.0136 262.73C77.8332 262.191 77.7429 261.515 77.7429 260.701C77.7429 259.922 77.816 259.232 77.9621 258.63C78.1082 258.026 78.3202 257.517 78.598 257.105C78.8759 256.689 79.2111 256.374 79.6035 256.16C79.9988 255.945 80.4443 255.837 80.9399 255.837C81.4326 255.837 81.8709 255.936 82.2547 256.134C82.6415 256.329 82.9566 256.601 83.2001 256.95C83.4435 257.3 83.6011 257.702 83.6727 258.158H82.6243C82.5269 257.762 82.3378 257.434 82.0571 257.174C81.7763 256.913 81.4039 256.783 80.9399 256.783C80.2581 256.783 79.721 257.079 79.3285 257.672C78.9389 258.265 78.7427 259.097 78.7398 260.169H78.8086C78.969 259.925 79.1595 259.717 79.3801 259.545C79.6035 259.371 79.8499 259.236 80.1191 259.142C80.3884 259.047 80.6734 259 80.9742 259C81.4784 259 81.9396 259.126 82.3579 259.378C82.7761 259.627 83.1112 259.972 83.3633 260.413C83.6154 260.852 83.7415 261.355 83.7415 261.922C83.7415 262.466 83.6197 262.964 83.3762 263.417C83.1327 263.867 82.7904 264.225 82.3493 264.491C81.911 264.755 81.3953 264.884 80.8024 264.878ZM80.8024 263.933C81.1633 263.933 81.487 263.842 81.7735 263.662C82.0628 263.481 82.2905 263.239 82.4567 262.936C82.6257 262.632 82.7102 262.294 82.7102 261.922C82.7102 261.558 82.6286 261.227 82.4653 260.929C82.3049 260.628 82.0828 260.389 81.7992 260.212C81.5185 260.034 81.1977 259.945 80.8367 259.945C80.5646 259.945 80.3111 260 80.0762 260.108C79.8413 260.214 79.635 260.36 79.4574 260.547C79.2827 260.733 79.1452 260.946 79.0449 261.187C78.9446 261.425 78.8945 261.675 78.8945 261.939C78.8945 262.288 78.9762 262.615 79.1394 262.919C79.3056 263.222 79.5319 263.467 79.8184 263.653C80.1077 263.84 80.4357 263.933 80.8024 263.933Z" fill="#8DA291"/>
<path d="M112.159 264.758V263.984L115.063 260.804C115.404 260.432 115.685 260.108 115.906 259.833C116.126 259.556 116.289 259.295 116.395 259.051C116.504 258.805 116.559 258.547 116.559 258.278C116.559 257.969 116.484 257.701 116.335 257.474C116.189 257.248 115.989 257.073 115.734 256.95C115.479 256.827 115.192 256.765 114.874 256.765C114.536 256.765 114.241 256.836 113.989 256.976C113.74 257.113 113.547 257.307 113.409 257.556C113.274 257.805 113.207 258.097 113.207 258.433H112.193C112.193 257.917 112.312 257.464 112.55 257.075C112.787 256.685 113.111 256.382 113.521 256.164C113.933 255.946 114.396 255.837 114.909 255.837C115.424 255.837 115.881 255.946 116.279 256.164C116.678 256.382 116.99 256.675 117.216 257.045C117.442 257.414 117.556 257.825 117.556 258.278C117.556 258.602 117.497 258.918 117.379 259.228C117.265 259.534 117.064 259.876 116.778 260.254C116.494 260.63 116.1 261.088 115.596 261.63L113.62 263.744V263.812H117.71V264.758H112.159ZM119.76 264.758L123.696 256.972V256.903H119.158V255.958H124.796V256.954L120.877 264.758H119.76Z" fill="#8DA291"/>
<path d="M153.762 264.758V263.984L156.667 260.804C157.008 260.432 157.289 260.108 157.509 259.833C157.73 259.556 157.893 259.295 157.999 259.051C158.108 258.805 158.162 258.547 158.162 258.278C158.162 257.969 158.088 257.701 157.939 257.474C157.793 257.248 157.592 257.073 157.337 256.95C157.082 256.827 156.796 256.765 156.478 256.765C156.14 256.765 155.845 256.836 155.593 256.976C155.343 257.113 155.15 257.307 155.013 257.556C154.878 257.805 154.811 258.097 154.811 258.433H153.797C153.797 257.917 153.915 257.464 154.153 257.075C154.391 256.685 154.715 256.382 155.124 256.164C155.537 255.946 155.999 255.837 156.512 255.837C157.028 255.837 157.485 255.946 157.883 256.164C158.281 256.382 158.593 256.675 158.82 257.045C159.046 257.414 159.159 257.825 159.159 258.278C159.159 258.602 159.1 258.918 158.983 259.228C158.868 259.534 158.668 259.876 158.381 260.254C158.098 260.63 157.704 261.088 157.2 261.63L155.223 263.744V263.812H159.314V264.758H153.762ZM163.907 264.878C163.317 264.878 162.796 264.773 162.343 264.564C161.893 264.352 161.542 264.062 161.29 263.692C161.038 263.32 160.914 262.896 160.917 262.42C160.914 262.048 160.987 261.704 161.136 261.389C161.285 261.071 161.488 260.806 161.746 260.594C162.007 260.379 162.297 260.243 162.618 260.186V260.134C162.197 260.025 161.862 259.789 161.613 259.425C161.363 259.059 161.24 258.642 161.243 258.175C161.24 257.728 161.353 257.328 161.583 256.976C161.812 256.624 162.127 256.346 162.528 256.142C162.932 255.939 163.392 255.837 163.907 255.837C164.417 255.837 164.873 255.939 165.274 256.142C165.675 256.346 165.99 256.624 166.219 256.976C166.451 257.328 166.568 257.728 166.571 258.175C166.568 258.642 166.441 259.059 166.189 259.425C165.94 259.789 165.609 260.025 165.196 260.134V260.186C165.514 260.243 165.801 260.379 166.056 260.594C166.311 260.806 166.514 261.071 166.666 261.389C166.818 261.704 166.895 262.048 166.898 262.42C166.895 262.896 166.766 263.32 166.511 263.692C166.259 264.062 165.908 264.352 165.458 264.564C165.012 264.773 164.494 264.878 163.907 264.878ZM163.907 263.933C164.305 263.933 164.649 263.868 164.939 263.739C165.228 263.61 165.451 263.429 165.609 263.194C165.766 262.959 165.847 262.684 165.849 262.369C165.847 262.036 165.761 261.743 165.592 261.488C165.423 261.233 165.192 261.032 164.9 260.886C164.611 260.74 164.28 260.667 163.907 260.667C163.532 260.667 163.197 260.74 162.902 260.886C162.61 261.032 162.379 261.233 162.21 261.488C162.044 261.743 161.962 262.036 161.965 262.369C161.962 262.684 162.038 262.959 162.193 263.194C162.35 263.429 162.575 263.61 162.867 263.739C163.16 263.868 163.506 263.933 163.907 263.933ZM163.907 259.756C164.222 259.756 164.502 259.693 164.745 259.567C164.992 259.441 165.185 259.265 165.325 259.038C165.466 258.812 165.537 258.547 165.54 258.244C165.537 257.946 165.467 257.686 165.33 257.466C165.192 257.242 165.002 257.07 164.758 256.95C164.515 256.827 164.231 256.765 163.907 256.765C163.578 256.765 163.29 256.827 163.044 256.95C162.797 257.07 162.607 257.242 162.472 257.466C162.337 257.686 162.272 257.946 162.274 258.244C162.272 258.547 162.339 258.812 162.476 259.038C162.617 259.265 162.81 259.441 163.056 259.567C163.303 259.693 163.586 259.756 163.907 259.756Z" fill="#8DA291"/>
<path d="M195.367 264.758V263.984L198.271 260.804C198.612 260.432 198.893 260.108 199.114 259.833C199.334 259.556 199.497 259.295 199.603 259.051C199.712 258.805 199.767 258.547 199.767 258.278C199.767 257.969 199.692 257.701 199.543 257.474C199.397 257.248 199.197 257.073 198.942 256.95C198.687 256.827 198.4 256.765 198.082 256.765C197.744 256.765 197.449 256.836 197.197 256.976C196.948 257.113 196.755 257.307 196.617 257.556C196.482 257.805 196.415 258.097 196.415 258.433H195.401C195.401 257.917 195.52 257.464 195.758 257.075C195.995 256.685 196.319 256.382 196.729 256.164C197.141 255.946 197.604 255.837 198.117 255.837C198.632 255.837 199.089 255.946 199.487 256.164C199.886 256.382 200.198 256.675 200.424 257.045C200.65 257.414 200.764 257.825 200.764 258.278C200.764 258.602 200.705 258.918 200.587 259.228C200.473 259.534 200.272 259.876 199.986 260.254C199.702 260.63 199.308 261.088 198.804 261.63L196.828 263.744V263.812H200.918V264.758H195.367ZM205.495 255.837C205.855 255.84 206.216 255.909 206.577 256.043C206.938 256.178 207.268 256.402 207.566 256.714C207.864 257.023 208.103 257.446 208.283 257.981C208.464 258.517 208.554 259.189 208.554 259.997C208.554 260.779 208.479 261.473 208.331 262.081C208.184 262.685 207.972 263.195 207.695 263.61C207.42 264.026 207.084 264.341 206.689 264.556C206.297 264.771 205.853 264.878 205.357 264.878C204.864 264.878 204.425 264.781 204.038 264.586C203.654 264.388 203.339 264.115 203.093 263.765C202.849 263.413 202.693 263.005 202.624 262.54H203.673C203.767 262.944 203.955 263.278 204.236 263.542C204.519 263.802 204.893 263.933 205.357 263.933C206.036 263.933 206.572 263.636 206.964 263.043C207.359 262.45 207.557 261.612 207.557 260.529H207.488C207.328 260.77 207.137 260.978 206.917 261.153C206.696 261.327 206.451 261.462 206.182 261.556C205.913 261.651 205.626 261.698 205.323 261.698C204.818 261.698 204.356 261.574 203.935 261.324C203.517 261.072 203.181 260.727 202.929 260.289C202.68 259.848 202.555 259.344 202.555 258.776C202.555 258.238 202.676 257.745 202.916 257.298C203.16 256.848 203.501 256.49 203.939 256.224C204.38 255.958 204.899 255.829 205.495 255.837ZM205.495 256.783C205.134 256.783 204.808 256.873 204.519 257.053C204.233 257.231 204.005 257.472 203.836 257.775C203.67 258.076 203.587 258.41 203.587 258.776C203.587 259.143 203.667 259.477 203.827 259.778C203.991 260.075 204.213 260.313 204.493 260.491C204.777 260.666 205.099 260.753 205.46 260.753C205.732 260.753 205.986 260.7 206.221 260.594C206.456 260.485 206.66 260.338 206.835 260.151C207.013 259.962 207.152 259.749 207.252 259.511C207.352 259.27 207.402 259.02 207.402 258.759C207.402 258.415 207.319 258.093 207.153 257.792C206.99 257.492 206.764 257.248 206.474 257.062C206.188 256.876 205.861 256.783 205.495 256.783Z" fill="#8DA291"/>
<path d="M239.945 264.878C239.377 264.878 238.872 264.781 238.428 264.586C237.987 264.391 237.636 264.12 237.375 263.774C237.117 263.424 236.977 263.019 236.954 262.558H238.037C238.06 262.841 238.157 263.086 238.329 263.292C238.501 263.496 238.726 263.653 239.004 263.765C239.281 263.877 239.589 263.933 239.927 263.933C240.306 263.933 240.641 263.867 240.933 263.735C241.225 263.603 241.454 263.42 241.62 263.185C241.787 262.95 241.87 262.678 241.87 262.369C241.87 262.045 241.789 261.76 241.629 261.513C241.469 261.264 241.234 261.069 240.924 260.929C240.615 260.789 240.237 260.719 239.79 260.719H239.085V259.773H239.79C240.139 259.773 240.446 259.71 240.709 259.584C240.976 259.458 241.184 259.281 241.333 259.051C241.484 258.822 241.56 258.553 241.56 258.244C241.56 257.946 241.494 257.686 241.363 257.466C241.231 257.245 241.045 257.073 240.804 256.95C240.566 256.827 240.286 256.765 239.962 256.765C239.658 256.765 239.372 256.821 239.102 256.933C238.836 257.042 238.618 257.201 238.449 257.41C238.28 257.616 238.189 257.865 238.174 258.158H237.143C237.16 257.696 237.299 257.292 237.56 256.946C237.82 256.596 238.161 256.324 238.582 256.129C239.006 255.935 239.472 255.837 239.979 255.837C240.523 255.837 240.99 255.948 241.38 256.168C241.769 256.386 242.069 256.674 242.278 257.032C242.487 257.39 242.592 257.777 242.592 258.192C242.592 258.688 242.461 259.11 242.201 259.46C241.943 259.809 241.592 260.051 241.148 260.186V260.254C241.704 260.346 242.137 260.582 242.45 260.963C242.762 261.342 242.918 261.81 242.918 262.369C242.918 262.847 242.788 263.277 242.527 263.658C242.269 264.036 241.917 264.334 241.47 264.551C241.023 264.769 240.515 264.878 239.945 264.878ZM247.546 264.878C246.899 264.878 246.347 264.702 245.892 264.349C245.436 263.994 245.088 263.48 244.847 262.807C244.607 262.131 244.486 261.314 244.486 260.358C244.486 259.407 244.607 258.594 244.847 257.921C245.091 257.245 245.44 256.73 245.896 256.374C246.354 256.016 246.904 255.837 247.546 255.837C248.188 255.837 248.736 256.016 249.192 256.374C249.65 256.73 249.999 257.245 250.24 257.921C250.484 258.594 250.605 259.407 250.605 260.358C250.605 261.314 250.485 262.131 250.244 262.807C250.004 263.48 249.656 263.994 249.2 264.349C248.745 264.702 248.193 264.878 247.546 264.878ZM247.546 263.933C248.188 263.933 248.686 263.623 249.041 263.005C249.396 262.386 249.574 261.503 249.574 260.358C249.574 259.596 249.492 258.947 249.329 258.411C249.169 257.875 248.937 257.467 248.633 257.186C248.332 256.906 247.97 256.765 247.546 256.765C246.91 256.765 246.413 257.079 246.055 257.706C245.697 258.331 245.518 259.215 245.518 260.358C245.518 261.12 245.598 261.767 245.758 262.3C245.919 262.833 246.149 263.238 246.45 263.516C246.754 263.794 247.119 263.933 247.546 263.933Z" fill="#8DA291"/>
<path d="M281.548 264.878C280.981 264.878 280.475 264.781 280.031 264.586C279.59 264.391 279.239 264.12 278.979 263.774C278.721 263.424 278.58 263.019 278.557 262.558H279.64C279.663 262.841 279.761 263.086 279.932 263.292C280.104 263.496 280.329 263.653 280.607 263.765C280.885 263.877 281.193 263.933 281.531 263.933C281.909 263.933 282.244 263.867 282.536 263.735C282.829 263.603 283.058 263.42 283.224 263.185C283.39 262.95 283.473 262.678 283.473 262.369C283.473 262.045 283.393 261.76 283.233 261.513C283.072 261.264 282.837 261.069 282.528 260.929C282.218 260.789 281.84 260.719 281.393 260.719H280.689V259.773H281.393C281.743 259.773 282.049 259.71 282.313 259.584C282.579 259.458 282.787 259.281 282.936 259.051C283.088 258.822 283.164 258.553 283.164 258.244C283.164 257.946 283.098 257.686 282.966 257.466C282.834 257.245 282.648 257.073 282.408 256.95C282.17 256.827 281.889 256.765 281.565 256.765C281.262 256.765 280.975 256.821 280.706 256.933C280.44 257.042 280.222 257.201 280.053 257.41C279.884 257.616 279.792 257.865 279.778 258.158H278.747C278.764 257.696 278.903 257.292 279.163 256.946C279.424 256.596 279.765 256.324 280.186 256.129C280.61 255.935 281.075 255.837 281.583 255.837C282.127 255.837 282.594 255.948 282.983 256.168C283.373 256.386 283.672 256.674 283.881 257.032C284.09 257.39 284.195 257.777 284.195 258.192C284.195 258.688 284.065 259.11 283.804 259.46C283.546 259.809 283.195 260.051 282.751 260.186V260.254C283.307 260.346 283.741 260.582 284.053 260.963C284.365 261.342 284.522 261.81 284.522 262.369C284.522 262.847 284.391 263.277 284.131 263.658C283.873 264.036 283.52 264.334 283.074 264.551C282.627 264.769 282.118 264.878 281.548 264.878ZM289.373 255.958V264.758H288.307V257.075H288.256L286.107 258.501V257.419L288.307 255.958H289.373Z" fill="#8DA291"/>
<path opacity="0.59" d="M220.37 173.85H79.8271C77.1481 173.85 74.9761 171.678 74.9761 168.999V166.961C74.9761 164.282 77.1481 162.11 79.8271 162.11H220.37C223.049 162.11 225.221 164.282 225.221 166.961V168.999C225.221 171.678 223.049 173.85 220.37 173.85Z" fill="#F0B270"/>
<path opacity="0.59" d="M343.195 211.625H199.307C196.628 211.625 194.456 209.453 194.456 206.774V204.736C194.456 202.057 196.628 199.885 199.307 199.885H343.196C345.875 199.885 348.047 202.057 348.047 204.736V206.774C348.046 209.453 345.874 211.625 343.195 211.625Z" fill="#BCD8C1"/>
</g>
<mask id="mask3_19_241" style="mask-type:luminance" maskUnits="userSpaceOnUse" x="-1" y="0" width="501" height="427">
<path d="M9.11951e-06 0C9.11951e-06 0 -1.70399 281.147 9.11951e-06 322.491C2.43701 344.945 23.283 381.623 40.427 396.325C76.858 429.459 138.023 437.878 184.13 409.04C210.723 388.141 223.152 375.619 259.527 378.782C335.214 384.384 456.818 388.044 487.956 301.755C498.048 264.329 500 0 500 0H9.11951e-06Z" fill="white"/>
</mask>
<g mask="url(#mask3_19_241)">
<path d="M336.949 322.474C342.67 317.654 410.613 317.654 416.334 322.474C425.829 353.068 420.047 398.219 416.619 425.408C414.427 442.792 408.538 460.352 405.119 514.811C405.119 514.811 390.057 519.875 389.375 516.523C375.544 448.559 382.251 383.554 382.251 383.554C377.444 383.554 377.74 448.559 363.909 516.523C363.227 519.875 348.165 514.811 348.165 514.811C344.746 460.352 338.857 442.791 336.665 425.408C333.236 398.219 327.453 353.067 336.949 322.474Z" fill="#73806D"/>
<path d="M418.158 332.525C392.23 343.254 360.652 342.263 334.73 331.983C333.992 331.691 334.317 330.483 335.061 330.782C360.745 341.103 392.094 342.095 418.082 332.248C418.256 332.181 418.325 332.455 418.158 332.525Z" fill="#312A3C"/>
<path d="M381.16 178.472C372.146 196.878 362.953 201.86 332.544 186.968C318.154 179.921 324.226 162.8 331.273 148.41C338.32 134.02 353.474 132.609 367.864 139.656C382.254 146.704 391.578 157.197 381.16 178.472Z" fill="#F0B270"/>
<path d="M331.518 162.066C330.946 163.234 329.914 163.903 329.213 163.56C328.512 163.217 328.407 161.992 328.98 160.823C329.552 159.655 330.584 158.986 331.285 159.329C331.986 159.672 332.09 160.897 331.518 162.066Z" fill="#312A3C"/>
<path d="M331.387 154.573C332.399 154.645 333.346 154.983 334.163 155.588C334.905 156.138 335.243 156.949 335.889 157.549C336.074 157.721 336.488 157.619 336.449 157.317C336.324 156.342 335.364 155.489 334.59 154.955C333.638 154.299 332.538 153.96 331.387 153.916C330.962 153.901 330.969 154.544 331.387 154.573Z" fill="#092A3E"/>
<path d="M326.797 159.657C325.279 161.769 323.724 163.853 322.131 165.908C323.082 166.656 324.032 167.404 324.983 168.152C325.563 165.81 326.143 163.467 326.723 161.125L326.797 159.657Z" fill="#F0B270"/>
<path d="M323.969 169.478L326.797 170.399L323.771 172.614C323.771 172.614 323.779 170.817 323.969 169.478Z" fill="white"/>
<path d="M365.524 172.613C366.13 188.132 385.161 207.035 379.179 212.755C374.631 217.104 345.834 219.968 345.834 219.968C345.834 219.968 343.891 196.466 341.925 188.377C347.402 186.66 357.696 176.47 365.524 172.613Z" fill="#F0B270"/>
<path d="M374.201 146.347C376.606 144.373 378.807 141.815 379.177 138.726C377.475 136.777 375.763 134.818 373.77 133.169C368.822 129.076 362.255 127.104 355.841 127.419C349.427 127.735 343.199 130.265 338.137 134.218C334.227 137.271 330.825 141.538 330.55 146.491C330.499 147.408 330.564 148.357 330.959 149.186C331.823 150.999 333.967 151.754 335.918 152.229C337.898 152.711 339.904 153.088 341.925 153.357C344.899 153.753 347.324 153.125 350.197 152.934C352.994 152.748 355.763 153.364 358.616 152.998C364.29 152.273 369.774 149.981 374.201 146.347Z" fill="#312A3C"/>
<path d="M381.387 136.895C385.559 138.62 396.413 146.151 394.262 160.715C392.52 172.507 386.548 183.651 377.561 191.483C375.117 193.613 371.111 199.465 369.531 197.823C366.132 194.289 353.893 188.451 352.63 183.713C351.367 178.975 350.804 174.084 349.921 169.261C349.201 165.329 348.263 161.321 348.918 157.377C349.539 153.637 351.581 150.233 354.216 147.507C356.852 144.781 360.065 142.68 363.375 140.831C365.054 139.892 376.348 134.811 381.387 136.895Z" fill="#312A3C"/>
<path d="M355.193 160.395C358.147 160.823 359.678 163.648 359.126 166.338C357.75 173.038 349.976 174.641 344.369 175.879C344.919 173.072 350.663 159.738 355.193 160.395Z" fill="#F0B270"/>
<path d="M349.469 169.369C350.459 168.081 351.543 166.751 352.992 165.953C354.525 165.109 355.918 165.274 357.587 165.517C357.826 165.552 358.109 165.246 357.861 165.047C354.645 162.47 350.778 166.773 349.146 169.18C349.007 169.384 349.326 169.555 349.469 169.369Z" fill="#092A3E"/>
<path d="M353.724 165.853C354.149 166.416 354.38 167.073 354.346 167.785C354.316 168.412 353.935 168.883 353.871 169.478C353.848 169.69 354.127 169.829 354.294 169.721C354.903 169.329 354.985 168.347 354.931 167.68C354.867 166.898 354.546 166.2 354.018 165.626C353.877 165.473 353.594 165.681 353.724 165.853Z" fill="#092A3E"/>
<path d="M275.872 187.214C275.872 187.214 261.773 177.379 261.289 174.295C260.805 171.211 271.622 178.599 271.622 178.599C271.451 177.273 271.907 176.475 273.555 176.681C273.612 175.382 274.134 174.385 275.995 174.26C275.839 173.299 276.433 172.693 277.81 172.459C277.81 172.459 284.228 174.357 286.019 175.636C288.621 177.495 294.898 187.462 294.898 187.462L287.5 192.991C287.5 192.991 271.444 189.341 268.319 187.684C265.195 186.025 271.914 185.349 275.872 187.214Z" fill="#F0B270"/>
<path d="M387.647 240.079C382.582 237.732 350.77 247.487 328.199 233.412C306.361 219.794 286.834 198.319 285.199 195.401C283.766 192.843 292.197 182.851 295.179 185.426C295.179 185.426 310.312 197.013 329.616 209.845C340.731 217.234 367.733 207.336 377.686 208.177C377.686 208.177 394.516 243.262 387.647 240.079Z" fill="#8DA291"/>
<path d="M376.981 197.354C353.247 195.39 329.639 223.43 328.635 228.132C326.341 238.873 335.838 269.07 337.328 295.736C338.356 314.127 331.216 331.514 331.492 336.933C354.873 345.436 395.008 354.452 421.269 335.438C421.208 331.5 416.083 313.18 413.486 292.602C411.008 272.968 411.143 251.268 407.446 238.488C398.816 208.659 376.981 197.354 376.981 197.354Z" fill="#BCD8C1"/>
<path d="M238.559 248.665C237.137 250.253 243.951 253.699 241.678 255.03C239.815 255.149 225.725 250.817 225.456 253.6C225.285 255.375 234.971 256.824 236.962 258.412C231.723 259.473 223.061 259.214 223.106 260.7C223.18 263.118 236.71 261.941 236.688 263.191C236.655 265.046 224.852 265.465 224.855 267.131C224.858 268.849 234.935 266.658 238.65 267.718C238.542 269.275 229.135 271.772 229.569 273.629C229.721 274.278 247.272 268.797 251.896 267.938C251.896 267.938 268.718 266.98 269.69 266.591C272.744 265.372 270.255 257.911 269.15 255.193C268.553 253.724 255.062 258.92 248.62 253.687C246.391 251.876 239.723 247.365 238.559 248.665Z" fill="#F0B270"/>
<path d="M363.203 238.008C357.801 239.417 339.453 267.175 313.083 270.665C287.569 274.042 258.843 269.885 255.726 268.673C252.993 267.61 253.147 254.537 257.085 254.629C257.085 254.629 276.132 253.948 299.191 251.577C312.467 250.212 327.013 225.402 335.229 219.722C335.229 219.722 370.528 236.096 363.203 238.008Z" fill="#BCD8C1"/>
<path d="M402.271 162.629C411.141 165.915 417.758 174.013 420.48 183.072C422.016 188.186 422.516 193.792 425.603 198.149C428.469 202.194 433.11 204.509 437.356 207.067C446.715 212.705 455.044 220.386 460.205 230.016C461.917 233.21 463.296 236.74 463.069 240.357C462.9 243.048 461.853 245.606 460.617 248.002C454.939 259.018 444.844 267.677 433.092 271.612C423.538 274.811 411.908 274.504 404.645 267.521C401.671 264.662 399.68 260.934 398.094 257.126C393.938 247.147 392.297 235.745 395.668 225.475C397.43 220.106 400.539 214.47 398.613 209.158C397.514 206.128 394.964 203.908 392.692 201.622C387.757 196.657 383.662 190.586 382.308 183.717C379.783 170.905 388.292 157.451 402.271 162.629Z" fill="#312A3C"/>
</g>
<mask id="mask4_19_241" style="mask-type:luminance" maskUnits="userSpaceOnUse" x="0" y="15" width="501" height="427">
<path d="M0.757333 15C0.757333 15 -0.946667 296.147 0.757333 337.491C3.19433 359.945 24.0403 396.623 41.1843 411.325C77.6153 444.459 138.78 452.878 184.887 424.04C211.48 403.141 223.909 390.619 260.284 393.782C335.971 399.384 457.575 403.044 488.713 316.755C498.805 279.329 500.757 15 500.757 15H0.757333Z" fill="white"/>
</mask>
<g mask="url(#mask4_19_241)">
<path d="M114.127 445.365C125.205 437.656 132.317 424.533 132.728 411.043C133.138 397.553 126.837 384.022 116.247 375.654C110.933 371.455 104.656 368.512 99.7233 363.871C89.7953 354.532 86.9173 340.054 79.7453 328.464C73.3293 318.096 63.2593 310.041 51.7353 306.06C48.8983 305.08 45.8943 304.333 42.9153 304.696C39.4393 305.12 36.2863 307.035 33.7393 309.439C24.0783 318.559 22.9123 333.782 26.1573 346.666C29.4023 359.55 36.2543 371.219 40.5933 383.777C45.1253 396.889 47.0853 411.311 55.3393 422.461C67.1383 438.397 114.127 445.365 114.127 445.365Z" fill="#BCD8C1"/>
<path d="M37.7243 306.072C47.9653 337.842 61.7173 368.187 78.7753 396.881C87.4173 411.417 96.8593 425.483 107.151 438.903C116.92 451.641 127.316 465.177 139.785 475.404C140.672 476.131 141.785 475.031 141.045 474.144C130.323 461.313 118.527 449.565 108.312 436.264C98.3553 423.298 89.1953 409.722 80.7783 395.71C63.7393 367.345 49.5123 337.043 38.3583 305.896C38.2163 305.504 37.5933 305.665 37.7243 306.072Z" fill="#8DA291"/>
<path d="M57.7043 310.141C56.1363 313.956 54.3073 317.613 52.3383 321.235C50.6053 324.423 48.2383 327.369 46.7613 330.661C46.5743 331.078 47.0593 331.528 47.4243 331.172C52.7893 325.936 55.8243 317.238 58.0663 310.241C58.1413 310.005 57.7933 309.924 57.7043 310.141Z" fill="#8DA291"/>
<path d="M77.2223 325.286C74.4273 330.389 71.5613 335.472 68.6083 340.486C65.6713 345.475 62.0063 350.194 59.3983 355.344C59.1253 355.884 59.8383 356.532 60.2813 356.026C67.7543 347.504 73.0773 335.796 77.5453 325.476C77.6393 325.26 77.3403 325.069 77.2223 325.286Z" fill="#8DA291"/>
<path d="M25.4513 335.471C32.0813 342.189 43.9973 345.27 52.7553 348.085C53.5053 348.326 53.8203 347.155 53.0793 346.91C48.7533 345.476 44.4753 343.907 40.2123 342.296C35.2513 340.422 29.7853 338.77 25.8493 335.073C25.5863 334.826 25.1963 335.212 25.4513 335.471Z" fill="#8DA291"/>
<path d="M36.8483 372.467C42.2743 375.526 47.9273 376.895 53.9763 378.19C57.3553 378.914 60.7443 379.572 64.1373 380.225C66.0893 380.601 68.1763 381.454 70.0833 380.695C71.0223 380.321 70.6203 378.785 69.6593 379.158C67.4873 380.003 63.1333 378.354 60.8773 377.906C58.1013 377.355 55.3183 376.855 52.5323 376.356C47.1623 375.394 42.2113 374.196 37.3213 371.657C36.7883 371.38 36.3193 372.169 36.8483 372.467Z" fill="#8DA291"/>
<path d="M88.0513 345.517C83.5343 357.672 78.3513 369.134 70.7493 379.711C70.0073 380.744 71.7113 381.718 72.4493 380.705C80.0243 370.313 86.1033 358.364 88.5033 345.642C88.5593 345.344 88.1563 345.234 88.0513 345.517Z" fill="#8DA291"/>
<path d="M101.768 368.434C99.4064 374.763 96.4604 380.975 93.1824 386.881C90.5694 391.587 85.9684 396.647 84.8234 401.903C84.7174 402.389 85.2463 402.643 85.6063 402.359C90.1163 398.807 93.1373 391.363 95.8023 386.336C98.8263 380.633 101.146 374.964 102.671 368.683C102.817 368.088 101.976 367.876 101.768 368.434Z" fill="#8DA291"/>
<path d="M120.956 382.04C118.882 390.513 115.811 398.628 111.8 406.38C109.983 409.892 107.962 413.293 105.745 416.568C103.384 420.056 100.339 423.133 98.2573 426.777C97.9473 427.319 98.6283 427.746 99.0673 427.402C105.39 422.439 110.032 413.491 113.577 406.44C117.421 398.796 120.037 390.632 121.768 382.265C121.879 381.737 121.086 381.509 120.956 382.04Z" fill="#8DA291"/>
<path d="M45.4993 396.901C54.8313 412.646 74.8153 415.697 91.4873 417.309C92.2263 417.38 92.3743 416.188 91.6613 416.02C75.3373 412.163 56.1653 412.285 45.8223 396.712C45.6903 396.512 45.3753 396.691 45.4993 396.901Z" fill="#8DA291"/>
<path d="M59.0203 422.839C70.4923 429.641 87.2563 434.682 100.439 430.048C100.968 429.862 100.911 429.031 100.302 429.035C93.0953 429.085 86.5623 430.149 79.3153 428.971C72.2583 427.824 65.5923 425.771 59.2093 422.515C58.9953 422.406 58.8113 422.715 59.0203 422.839Z" fill="#8DA291"/>
<path d="M226.634 382.961C213.601 358.444 207.613 330.72 205.116 303.066C225.537 307.327 240.795 323.999 253.655 340.425C265.043 354.971 275.829 370.208 283.078 387.2C287.802 398.272 290.973 410.135 291.616 422.186C291.762 424.921 293.037 439.04 290.418 440.703C287.437 442.596 284.844 438.691 281.96 437.021C258.256 423.293 239.745 407.625 226.634 382.961Z" fill="#BCD8C1"/>
<path d="M205.035 303.114C218.828 329.543 233.269 355.615 248.844 381.042C256.43 393.426 264.293 405.642 272.538 417.599C276.679 423.604 280.959 429.504 285.356 435.324C289.753 441.143 294.054 447.451 299.175 452.645C299.542 453.017 300.205 452.532 299.911 452.077C295.96 445.969 291.044 440.392 286.733 434.519C282.422 428.645 278.204 422.699 274.035 416.724C265.548 404.562 257.456 392.129 249.652 379.519C234.13 354.439 219.82 328.627 205.197 303.019C205.137 302.914 204.979 303.007 205.035 303.114Z" fill="#8DA291"/>
<path d="M209.378 329.771C214.248 333.76 219.409 339.259 225.721 340.804C226.142 340.907 226.361 340.354 226.01 340.119C223.318 338.318 220.323 336.945 217.605 335.15C214.877 333.349 212.274 331.363 209.605 329.477C209.433 329.354 209.212 329.635 209.378 329.771Z" fill="#8DA291"/>
<path d="M213.042 347.496C219.821 352.436 227.165 356.324 235.328 358.338C235.857 358.469 236.068 357.69 235.552 357.524C227.647 354.987 220.112 351.871 213.136 347.334C213.034 347.267 212.946 347.426 213.042 347.496Z" fill="#8DA291"/>
<path d="M219.253 367.331C227.861 373.263 237.642 379.586 248.323 380.62C248.816 380.668 248.867 379.932 248.435 379.791C238.097 376.417 228.763 372.723 219.442 367.007C219.234 366.879 219.057 367.195 219.253 367.331Z" fill="#8DA291"/>
<path d="M232.71 392.849C241.375 396.853 251.345 402.106 261.17 401.138C261.697 401.086 261.928 400.226 261.307 400.125C251.29 398.492 242.324 396.241 232.854 392.506C232.659 392.429 232.518 392.76 232.71 392.849Z" fill="#8DA291"/>
<path d="M223.234 311.785C222.91 318.552 221.349 325.076 220.566 331.752C220.48 332.488 221.534 332.499 221.763 331.914C224.108 325.927 224.21 318.092 223.703 311.785C223.678 311.486 223.248 311.48 223.234 311.785Z" fill="#8DA291"/>
<path d="M234.266 319.927C233.81 329.425 231.562 338.393 229.85 347.68C229.699 348.5 230.876 348.852 231.116 348.029C233.724 339.081 235.268 329.244 234.641 319.927C234.625 319.687 234.278 319.685 234.266 319.927Z" fill="#8DA291"/>
<path d="M260.695 350.163C260.397 356.398 259.545 362.589 258.055 368.654C256.718 374.093 253.509 379.458 252.672 384.889C252.612 385.277 253.056 385.628 253.377 385.299C257.177 381.413 258.348 374.145 259.416 369.029C260.713 362.818 261.365 356.505 261.445 350.163C261.451 349.679 260.718 349.683 260.695 350.163Z" fill="#8DA291"/>
<path d="M279.016 381.689C278.353 393.506 275.439 404.698 271.743 415.883C271.394 416.939 272.968 417.306 273.37 416.332C277.818 405.555 279.566 393.299 279.766 381.69C279.775 381.204 279.043 381.21 279.016 381.689Z" fill="#8DA291"/>
<path d="M257.089 419.403C261.445 420.583 265.788 421.837 270.162 422.945C272.403 423.512 275.107 424.497 276.798 422.511C276.967 422.313 276.812 421.947 276.524 422.041C273.501 423.027 269.333 421.529 266.274 420.95C263.228 420.374 260.183 419.798 257.138 419.222C257.022 419.2 256.971 419.371 257.089 419.403Z" fill="#8DA291"/>
</g>
<path d="M428.211 105.607C428.211 107.009 427.22 108.146 425.998 108.146C424.776 108.146 423.785 107.009 423.785 105.607C423.785 104.205 424.776 74.359 425.998 74.359C427.22 74.359 428.211 104.205 428.211 105.607Z" fill="#73806D"/>
<path d="M426.529 101.207C427.1 101.778 426.863 102.942 425.999 103.806C425.135 104.67 423.971 104.908 423.4 104.337C422.829 103.766 411.373 90.909 412.237 90.045C413.1 89.179 425.958 100.636 426.529 101.207Z" fill="#73806D"/>
<path d="M439.378 135.298C456.772 127.914 464.885 107.828 457.501 90.4348C450.117 73.0417 430.031 64.9279 412.638 72.3122C395.244 79.6965 387.131 99.7825 394.515 117.176C401.899 134.569 421.985 142.683 439.378 135.298Z" stroke="#73806D" stroke-width="2" stroke-miterlimit="10"/>
<path d="M425.998 69.593V72.657" stroke="#73806D" stroke-width="2" stroke-miterlimit="10"/>
<path d="M408.892 74.176L410.424 76.83" stroke="#73806D" stroke-width="2" stroke-miterlimit="10"/>
<path d="M396.369 86.699L399.022 88.231" stroke="#73806D" stroke-width="2" stroke-miterlimit="10"/>
<path d="M391.786 103.806H394.849" stroke="#73806D" stroke-width="2" stroke-miterlimit="10"/>
<path d="M396.369 120.912L399.022 119.38" stroke="#73806D" stroke-width="2" stroke-miterlimit="10"/>
<path d="M408.892 133.435L410.424 130.781" stroke="#73806D" stroke-width="2" stroke-miterlimit="10"/>
<path d="M425.998 138.018V134.954" stroke="#73806D" stroke-width="2" stroke-miterlimit="10"/>
<path d="M443.105 133.435L441.573 130.781" stroke="#73806D" stroke-width="2" stroke-miterlimit="10"/>
<path d="M455.627 120.912L452.974 119.38" stroke="#73806D" stroke-width="2" stroke-miterlimit="10"/>
<path d="M460.211 103.806H457.147" stroke="#73806D" stroke-width="2" stroke-miterlimit="10"/>
<path d="M455.627 86.699L452.974 88.231" stroke="#73806D" stroke-width="2" stroke-miterlimit="10"/>
<path d="M443.105 74.176L441.573 76.83" stroke="#73806D" stroke-width="2" stroke-miterlimit="10"/>
</g>
<defs>
<clipPath id="clip0_19_241">
<rect width="500" height="500" fill="white"/>
</clipPath>
</defs>
</svg>
