<svg width="500" height="500" viewBox="0 0 500 500" fill="none" xmlns="http://www.w3.org/2000/svg">
<path d="M149.365 224.882C149.365 224.882 162.901 229.129 161.832 240.268C161.832 240.268 178.606 259.516 158.679 258.535L145.257 231.013L146.46 226.367L149.365 224.882Z" fill="#1B2C52"/>
<path d="M153.188 188.049C152.18 186.811 150.679 185.278 148.554 184.009C140.392 179.137 129.316 181.938 124.406 185.821C115.377 192.96 114.727 213.617 128.594 233.316C131.626 231.756 149.758 222.067 153.366 202.612C154.407 197 153.98 191.973 153.188 188.049Z" fill="#1B2C52"/>
<path d="M152.39 222.967C152.39 222.967 148.29 224.627 146.18 228.827C146.04 229.097 145.91 229.377 145.79 229.667C143.83 234.477 143.39 236.877 143.39 236.877L126.46 225.297L134.37 213.937L135.95 211.667H141.25L143.12 213.557L152.39 222.967Z" fill="#E69B7B"/>
<path d="M152.39 222.967C152.39 222.967 148.29 224.627 146.18 228.827L134.37 213.937L135.95 211.667H139.56L143.12 213.557L152.39 222.967Z" fill="#C66E48"/>
<path d="M153.188 188.049L158 199.188L159.158 205.158L163.435 209.524L159.782 212.197L156.841 224.049C156.841 224.049 148.376 223.871 137.683 212.376L132.18 210.11C130.908 209.586 130.037 208.395 129.923 207.025L129.695 204.286C129.569 202.772 130.389 201.338 131.758 200.679C133.255 199.958 135.05 200.334 136.132 201.596L139.11 205.07C139.173 203.348 139.543 200.846 141.338 199.456C143.368 197.884 145.593 198.998 147.932 198.03C149.804 197.255 152.089 195.005 153.188 188.049Z" fill="#E69B7B"/>
<path d="M148.733 347.853H59.624V442.343H148.733V347.853Z" fill="#633E38"/>
<path d="M148.733 361.099H59.624V370.604H148.733V361.099Z" fill="#3E2D21"/>
<path d="M153.983 347.853H53.921V361.099H153.983V347.853Z" fill="#633E38"/>
<path d="M148.733 137.893V160.72L172.97 165.458L168.218 182.329L193.406 160.111H213.366V123.636H148.733V137.893Z" fill="#ECC6AE"/>
<path d="M165.251 446.472C156.575 446.472 154.434 444.464 153.578 442.954C151.488 439.267 147.083 426.886 146.588 425.486L145.172 421.485H173.103L173.996 422.799C176.642 426.694 182.813 436.16 182.948 439.944C182.986 441.001 182.571 442.035 181.781 442.854C178.329 446.43 165.783 446.472 165.251 446.472Z" fill="#5B3E29"/>
<path d="M146.355 347.749L141.129 423.356H174.871L182.951 339.951L146.355 347.749Z" fill="#BDA390"/>
<path d="M172.257 423.356C172.257 423.356 180.574 435.594 180.693 438.92C180.812 442.247 158.95 443.91 156.931 440.346C154.911 436.782 150.159 423.356 150.159 423.356H172.257Z" fill="#E69B7B"/>
<path d="M155.524 437.75L152.042 432.488C156.021 429.855 160.604 428.027 165.295 427.201C167.47 426.818 169.317 426.432 171.472 426.668C173.354 426.874 174.864 427.387 175.882 427.812C176.891 429.962 177.9 432.112 178.908 434.263C177.18 433.685 174.606 433.03 171.439 432.978C170.851 432.968 168.919 432.97 166.389 433.415C162.542 434.091 158.786 435.591 155.524 437.75Z" fill="#5B3E29"/>
<path d="M219.019 400.823C218.748 400.823 218.487 400.818 218.232 400.809C210.15 400.515 192.402 390.19 190.48 385.599C189.37 382.948 188.701 378.535 188.452 376.643L181.115 367.14L197.779 358.488L208.017 370.024C246.869 384.321 245.891 388.103 245.242 390.611C243.621 396.861 226.017 400.823 219.019 400.823Z" fill="#5B3E29"/>
<path d="M243.88 387.127C242.92 390.827 227.43 395.357 219.89 395.077C216.8 394.967 212.24 393.197 207.85 390.947C205.75 389.877 203.69 388.687 201.85 387.527C198.13 385.167 195.28 382.877 194.79 381.707C193.56 378.757 192.87 372.727 192.87 372.727L187.23 365.417L198.63 359.497L207.82 369.847C207.82 369.847 211.78 371.297 217.08 373.387C221.6 375.167 227.1 377.407 231.93 379.597C238.75 382.677 244.26 385.667 243.88 387.127Z" fill="#E69B7B"/>
<path d="M89.03 317.079C89.03 317.079 162.456 301.039 168.159 307.277C173.862 313.515 215.387 366.624 215.387 366.624L178.318 385.871L157.11 347.198C157.11 347.198 103.11 350.941 97.229 342.921C91.346 334.901 89.03 317.079 89.03 317.079Z" fill="#DDC5B2"/>
<path d="M227.505 377.673C225.062 377.873 221.759 378.498 218.3 380.287C218.3 380.287 211.11 383.983 207.851 390.946C207.631 391.416 207.521 391.726 207.491 391.806L201.031 389.526C201.275 388.82 201.551 388.154 201.851 387.526C205.803 379.262 214.815 375.82 219.698 374.425C219.804 374.386 219.967 374.332 220.169 374.286C221.301 374.031 222.235 374.369 224.565 375.444C227.016 376.576 227.703 376.996 227.647 377.412C227.631 377.529 227.562 377.616 227.505 377.673Z" fill="#5B3E29"/>
<path d="M156.57 278.227V317.077H89.03L96.34 290.707C96.34 290.707 98.95 249.777 101.21 243.597C102.6 239.777 111.92 233.687 118.83 229.597C123.11 227.067 126.46 225.297 126.46 225.297L148.73 232.067C152.697 243.106 155.885 252.219 158.529 259.346C159.345 261.544 160.791 265.391 160.009 270.185C159.415 273.831 157.769 276.575 156.57 278.227Z" fill="#345B56"/>
<path d="M148.733 232.069C148.733 232.069 156.865 236.881 158.146 245.435C159.426 253.99 158.001 265.93 158.001 265.93L148.733 232.069Z" fill="#345B56"/>
<path d="M119.674 241.516C125.064 244.743 124.527 252.923 126.105 266.951C126.637 271.683 127.555 278.368 129.241 286.446C129.47 287.543 130.097 288.519 130.992 289.193C139.518 295.61 148.044 302.026 156.57 308.443C149.882 310.415 144.208 310.549 140.509 310.348C135.978 310.102 128.853 309.63 121.524 305.019C116.475 301.842 113.243 297.906 111.314 295.019C110.919 294.428 110.668 293.76 110.573 293.055C108.646 278.75 106.72 264.446 104.793 250.141C104.883 249.785 107.011 241.803 113.232 240.476C113.643 240.389 116.761 239.772 119.674 241.516Z" fill="#E69B7B"/>
<path d="M143.743 256.574C142.594 256.819 140.78 256.234 133.496 246.772C127.887 239.487 123.739 233.051 120.923 228.376C122.01 227.749 123.12 227.122 124.252 226.497C124.993 226.088 125.73 225.687 126.462 225.296L148.732 232.066C148.667 252.76 145.68 256.161 143.743 256.574Z" fill="#E69B7B"/>
<path d="M156.57 278.227C156.57 278.227 147.227 281.436 139.425 281.08C139.533 281.181 139.712 281.339 139.952 281.502C141.542 282.585 143.447 282.324 144.188 282.238C146.367 281.986 150.705 281.829 156.57 281.614C156.57 280.485 156.57 279.356 156.57 278.227Z" fill="#2D504B"/>
<path d="M275.09 219.417L269.118 321.179L322.317 379.872L335.741 368.229C323.305 346.843 310.87 325.457 298.434 304.07C299.503 291.417 300.573 278.763 301.642 266.11V219.418L275.09 219.417Z" fill="#14161B"/>
<path d="M301.644 266.109V378.208H320.811C320.811 378.208 334.08 291.713 335.743 273.416C337.406 255.119 337.466 219.416 337.466 219.416L301.644 219.417V266.109Z" fill="#14161B"/>
<path d="M296.179 132.795C296.179 132.795 288.337 125.138 290 117.534C291.663 109.93 295.703 105.296 295.703 105.296C295.703 105.296 294.349 94.8411 303.58 91.0391C312.812 87.2371 324.574 85.0981 328.138 93.4151C331.702 101.732 334.197 107.316 334.197 107.316C334.197 107.316 344.653 128.573 333.128 135.469L296.179 132.795Z" fill="#633E38"/>
<path d="M339.25 143.137L337.46 219.417H275.09C276.753 198.09 278.416 176.763 280.079 155.436C285.477 141.998 297.658 132.816 311.307 131.944C327.085 130.936 337.654 141.49 339.25 143.137Z" fill="white"/>
<path d="M323.98 123.947V145.697C323.98 145.697 317.92 158.767 311.62 157.217C305.33 155.677 305.71 146.767 305.71 146.767V135.477L323.98 123.947Z" fill="#E69B7B"/>
<path d="M323.98 123.947V134.497C317.891 142.879 311.532 147.013 308.326 145.367C307.715 145.053 305.953 143.879 305.71 138.827V135.477L323.98 123.947Z" fill="#C66E48"/>
<path d="M280.792 141.535C280.792 141.535 266.891 162.386 264.574 174.862C262.257 187.337 261.901 195.001 261.901 195.001L257.446 199.635L261.723 205.962C261.723 205.962 266.114 197.575 276.349 202.214C279.398 197.508 283.154 190.384 285.129 181.101C289.049 162.673 283.437 147.568 280.792 141.535Z" fill="#1B2C52"/>
<path d="M339.247 143.139C339.247 143.139 352.792 156.327 353.683 167.377C354.574 178.426 353.683 219.417 353.683 219.417H337.465L339.247 143.139Z" fill="#1B2C52"/>
<path d="M303.58 135.467L301.73 155.077C298.493 182.583 295.256 210.089 292.019 237.595C286.019 237.417 280.019 237.238 274.019 237.06C276.276 205.219 278.533 173.378 280.79 141.537C284.88 137.017 295.04 132.997 302.7 130.457L303.58 135.467Z" fill="#1B2C52"/>
<path d="M303.581 135.47C300.341 137.492 297.101 139.513 293.862 141.535L301.733 155.08C302.349 148.543 302.965 142.006 303.581 135.47Z" fill="#526E9D"/>
<path d="M339.25 143.137C338.655 172.841 338.06 202.544 337.465 232.248C326.772 234.446 316.079 236.644 305.386 238.842C307.819 220.459 311.065 200.909 315.366 180.387C318.836 163.835 322.676 148.159 326.724 133.405C329.276 134.86 332.135 136.755 335.059 139.219C336.63 140.541 338.022 141.863 339.25 143.137Z" fill="#1B2C52"/>
<path d="M301.644 378.208C301.644 378.208 299.862 393.891 297.723 398.881C295.584 403.871 270.99 411.535 270.99 415.812C270.99 420.089 319.554 417.059 319.554 417.059L320.81 378.207H301.644V378.208Z" fill="#444746"/>
<path d="M335.743 368.228L348.812 385.456L342.277 394.605C342.277 394.605 343.228 415.635 331.228 417.06H319.555L320.811 381.06L322.319 379.872L335.743 368.228Z" fill="#444746"/>
<path d="M284.832 79.601V102.428L260.594 107.165L265.346 124.036L240.158 101.819H220.198V65.343H284.832V79.601Z" fill="#E6AC8B"/>
<path d="M298.436 104.376C297.716 110.332 298.021 115.209 298.436 118.544C299.274 125.281 300.524 135.338 307.258 138.326C307.773 138.555 308.667 138.943 309.842 139.039C315.888 139.534 322.385 131.73 326.832 120.029L329.489 115.01C329.841 114.345 329.906 113.565 329.668 112.852C328.89 110.517 325.671 110.299 324.586 112.509L324.219 113.257L323.268 115.99C323.268 115.99 324.694 102.089 316.971 99.831C309.247 97.574 300.099 96.683 298.436 104.376Z" fill="#E69B7B"/>
<path d="M276.337 201.238L279.67 157.345L275.09 182.329L274.02 192.861L276.337 201.238Z" fill="#16223D"/>
<path d="M326.725 133.404V149.97L319.775 160.618L326.725 133.404Z" fill="#526E9D"/>
<path d="M340.906 141.535L267.939 240.3" stroke="#E4C288" stroke-width="5" stroke-miterlimit="10" stroke-linecap="round"/>
<path d="M261.723 205.96L272.594 219.416L273.96 223.634L287.802 228.208L293.861 219.891L283.881 213.891L278.713 215.079L273.129 201.116L269.119 197.792L260.654 202.01L261.723 205.96Z" fill="#E69B7B"/>
<path d="M272.112 275.358H263.29C259.776 275.358 256.927 272.509 256.927 268.995V233.532C256.927 230.018 259.776 227.169 263.29 227.169H272.112C275.626 227.169 278.475 230.018 278.475 233.532V268.995C278.475 272.509 275.626 275.358 272.112 275.358Z" fill="#E4C288"/>
<path d="M267.701 227.168V250" stroke="#AC8C56" stroke-width="3" stroke-miterlimit="10"/>
<path d="M351.01 208.546L347.98 224.887L339.25 224.077L293.86 219.887L283.88 213.887L282.91 214.117L286.32 205.956L294.87 202.127L306.19 213.447L339.25 209.837L351.01 208.546Z" fill="#E69B7B"/>
<path d="M351.01 208.546L347.98 224.886L339.25 224.076V209.836C340.25 209.252 341.67 208.579 343.465 208.188C346.804 207.459 349.592 208.105 351.01 208.546Z" fill="#1B2C52"/>
<path d="M380.24 284.286C358.14 303.536 344.24 342.916 344.24 342.916L329.09 404.936H309.84C309.84 404.936 322.61 300.686 335.74 273.416C348.87 246.146 343.7 239.906 343.7 239.906L352.97 239.446L390.22 237.596C390.22 237.596 391.33 240.106 392.26 244.136C394.42 253.436 395.66 270.857 380.24 284.286Z" fill="#5F5B53"/>
<path d="M309.842 404.941C309.842 404.941 307.776 414.208 303.581 418.604C299.386 423 280.971 432.148 280.971 435.594C280.971 439.04 280.971 439.04 280.971 439.04H325.644L329.089 404.941H309.842Z" fill="#B19F79"/>
<path d="M317.683 404.941L309.84 438.089" stroke="#8A7D60" stroke-miterlimit="10"/>
<path d="M325.792 436.913H280.97V441.167H325.792V436.913Z" fill="#8A7D60"/>
<path d="M378.76 238.165C378.76 238.165 378.293 307.634 378.76 318.089C379.227 328.544 387.782 370.723 377.564 404.941H357.604C357.604 404.941 359.03 377.495 358.792 363.238C358.554 348.981 340.906 261.422 340.906 261.422L378.76 238.165Z" fill="#5A554E"/>
<path d="M352.97 322.776L354.396 332.486L378.601 308.884V283.396L357.96 305.495L352.97 322.776Z" fill="#524E47"/>
<path d="M357.96 404.941C357.96 404.941 355.894 414.208 351.699 418.604C347.504 423 329.088 432.148 329.088 435.594C329.088 439.04 329.088 439.04 329.088 439.04H373.761L377.206 404.941H357.96Z" fill="#B19F79"/>
<path d="M367.346 404.941L360.218 439.04" stroke="#8A7D60" stroke-miterlimit="10"/>
<path d="M374.099 436.913H329.277V441.167H374.099V436.913Z" fill="#8A7D60"/>
<path d="M372.356 58.1371V76.9151L352.418 80.8121L356.328 94.6901L335.608 76.4141H319.188V46.4091H372.356V58.1371Z" fill="#ECC6AE"/>
<path d="M349.495 108.208C349.495 108.208 354.871 96.743 366.04 94.842C377.209 92.941 394.436 109.456 393.961 114.327C393.486 119.198 390.04 125.733 390.04 125.733C390.04 125.733 393.961 131.079 391.822 134.169C389.683 137.258 382.697 138.166 382.697 138.166L349.495 108.208Z" fill="#633E38"/>
<path d="M349.495 108.208C349.495 108.208 349.584 119.02 351.723 123.951L349.495 132.981L354.079 133.337L357.893 141.882C358.454 143.14 359.808 143.846 361.161 143.586C363.491 143.138 365.821 142.69 368.152 142.242C368.002 146.601 367.853 150.959 367.703 155.318C373.01 152.387 378.317 149.457 383.624 146.526L381.842 130.458L383.835 122.984C384.322 121.159 383.609 119.146 381.959 118.226C380.123 117.202 377.86 117.747 376.679 119.415L372.456 125.378C372.456 125.378 363.545 122.289 363.545 112.784C363.545 103.277 349.495 108.208 349.495 108.208Z" fill="#E69B7B"/>
<path d="M368.152 142.241L376.317 140.648L367.956 147.957L368.152 142.241Z" fill="#C66E48"/>
<path d="M383.344 144.001C376.24 148.576 369.135 153.151 362.031 157.727C357.758 164.088 343.082 186.54 348.336 191.792C348.623 192.079 348.976 192.32 349.405 192.505C347.504 208.307 345.603 224.109 343.702 239.911L390.217 237.594C390.517 237.491 390.944 237.302 391.346 236.941C393.26 235.218 392.443 231.475 392.198 230.139C391.359 225.563 392.961 220.86 393.069 216.208C393.518 196.739 406.504 170.818 395.653 152.406C393.368 148.53 387.553 140.787 384.746 141.879C383.93 142.196 383.544 143.191 383.344 144.001Z" fill="#68655A"/>
<path d="M392.26 244.137L352.97 242.047V239.447L390.22 237.597C390.22 237.597 391.33 240.107 392.26 244.137Z" fill="#524E47"/>
<path d="M361.731 162.921L339.25 246.565L358.292 250.741C358.292 250.741 377.802 205.694 384.812 178.605" fill="#68655A"/>
<path d="M340.906 246.928L336.155 268.065L326.713 280.545L325.406 292.901H327.307L329.632 291.256L339.25 289.455L340.906 280.545L355.957 250.228L340.906 246.928Z" fill="#E69B7B"/>
<path d="M386.395 141.96L382.796 139.062L362.031 157.727L386.395 141.96Z" fill="#B19F79"/>
<path d="M363.477 238.926C365.628 232.701 367.857 226.418 370.168 220.079C374.678 207.707 379.295 195.688 383.985 184.026C378.954 202.272 373.922 220.517 368.891 238.763C367.086 238.817 365.282 238.871 363.477 238.926Z" fill="#5D5B51"/>
</svg>
