<?xml version="1.0" encoding="utf-8"?>
<!-- Generator: Adobe Illustrator 27.5.0, SVG Export Plug-In . SVG Version: 6.00 Build 0)  -->
<svg version="1.1" xmlns="http://www.w3.org/2000/svg" xmlns:xlink="http://www.w3.org/1999/xlink" x="0px" y="0px"
	 viewBox="0 0 500 500" style="enable-background:new 0 0 500 500;" xml:space="preserve">
<g id="Background_Complete">
	<g>
		<g>
			<g>
				<path style="fill:#E0E0E0;" d="M60.118,270.517c-3.817,1.812-6.185,6.272-5.547,10.449c3.992-1.717,8.322-2.644,12.668-2.712"/>
			</g>
			<g>
				<path style="fill:#EBEBEB;" d="M57.36,272.527c-2.032,1.901,2.349-3.096,4.136-3.659c1.787-0.563,3.717-0.168,5.547,0.23
					c8.397,1.826,17.016,3.743,24.164,8.512c7.436,4.961,12.623,12.565,17.62,19.976c0.926,1.374,1.879,2.817,2.082,4.461
					c0.202,1.645-0.607,3.542-2.2,4.002c-0.776,0.224-1.605,0.082-2.399-0.061c-3.918-0.705-7.836-1.41-11.754-2.116
					c-5.358-0.964-10.945-2.027-15.252-5.357c-4.94-3.819-7.372-9.964-9.584-15.804c-1.694-4.473-6.051-6.811-8.486-10.928
					C61.234,271.784,59.508,270.517,57.36,272.527z"/>
			</g>
			<g>
				<g>
					<path style="fill:#E0E0E0;" d="M131.556,317.759c-0.008,0.016-0.283-0.111-0.797-0.366c-0.552-0.282-1.298-0.663-2.237-1.142
						c-1.935-1.007-4.731-2.473-8.13-4.393c-3.392-1.928-7.392-4.315-11.59-7.333c-2.097-1.509-4.24-3.181-6.352-5.042
						c-2.112-1.859-4.177-3.905-6.492-5.744c-1.158-0.917-2.352-1.76-3.599-2.464c-1.247-0.707-2.549-1.244-3.871-1.704
						c-1.317-0.468-2.637-0.9-3.882-1.47c-1.249-0.562-2.39-1.308-3.39-2.148c-2.002-1.698-3.469-3.717-4.777-5.599
						c-1.302-1.894-2.442-3.699-3.629-5.231c-2.356-3.085-4.928-5.031-6.94-5.826c-2.014-0.821-3.272-0.722-3.257-0.802
						c0.001-0.018,0.302-0.012,0.879,0.018c0.568,0.08,1.427,0.187,2.453,0.596c2.075,0.75,4.735,2.695,7.155,5.786
						c1.222,1.538,2.383,3.338,3.694,5.212c1.316,1.862,2.78,3.84,4.731,5.478c0.977,0.812,2.072,1.521,3.287,2.063
						c1.213,0.551,2.519,0.975,3.846,1.442c1.328,0.458,2.678,1.01,3.955,1.733c1.278,0.72,2.494,1.578,3.668,2.508
						c2.346,1.864,4.412,3.919,6.507,5.77c2.093,1.854,4.216,3.523,6.295,5.036c4.162,3.024,8.13,5.437,11.492,7.402
						c3.369,1.957,6.137,3.472,8.042,4.534c0.92,0.515,1.65,0.925,2.191,1.228C131.307,317.586,131.565,317.743,131.556,317.759z"/>
				</g>
			</g>
		</g>
	</g>
	<g>
		<g>
			<path style="fill:#E0E0E0;" d="M215.208,205.702c0,0,0.292-0.022,0.866-0.033c0.594-0.007,1.445-0.018,2.555-0.032
				c2.274-0.014,5.605-0.033,9.924-0.059l-0.123,0.123c-0.026-17.946-0.078-53.839-0.137-95.132
				c0.001-4.847,0.001-9.62,0.002-14.255l0.258,0.258c-38.806-0.071-71.094-0.13-85.793-0.157l0.101-0.101
				c-0.021,2.706-0.037,4.811-0.049,6.262c-0.011,0.699-0.02,1.239-0.026,1.625c-0.009,0.366-0.027,0.553-0.027,0.553
				s-0.018-0.187-0.026-0.553c-0.006-0.386-0.015-0.926-0.026-1.625c-0.011-1.45-0.028-3.555-0.049-6.262l-0.001-0.101l0.102,0
				c14.698-0.027,46.986-0.086,85.793-0.158l0.258,0v0.259c0.001,4.636,0.001,9.408,0.002,14.255
				c-0.059,41.293-0.111,77.186-0.137,95.132l0,0.124l-0.123-0.001c-4.319-0.026-7.65-0.045-9.924-0.059
				c-1.11-0.014-1.961-0.024-2.555-0.032C215.5,205.724,215.208,205.702,215.208,205.702z"/>
		</g>
	</g>
	<g>
		<g>
			<path style="fill:#E0E0E0;" d="M230.545,198.697c0,0,0.292-0.022,0.866-0.033c0.594-0.007,1.445-0.018,2.555-0.032
				c2.274-0.013,5.605-0.033,9.924-0.059l-0.123,0.123c-0.026-17.946-0.077-53.839-0.137-95.132
				c0.001-4.847,0.001-9.619,0.002-14.255l0.258,0.258c-38.806-0.071-71.094-0.131-85.793-0.157l0.101-0.101
				c-0.021,2.706-0.037,4.811-0.049,6.262c-0.011,0.699-0.02,1.239-0.026,1.625c-0.009,0.366-0.026,0.553-0.026,0.553
				s-0.018-0.187-0.027-0.553c-0.006-0.385-0.015-0.926-0.026-1.625c-0.011-1.45-0.028-3.555-0.049-6.262l-0.001-0.101l0.102,0
				c14.698-0.027,46.986-0.086,85.793-0.157l0.258-0.001v0.259c0.001,4.636,0.001,9.408,0.002,14.255
				c-0.059,41.293-0.111,77.186-0.137,95.132l0,0.124l-0.123-0.001c-4.319-0.026-7.65-0.045-9.924-0.059
				c-1.11-0.014-1.961-0.024-2.555-0.032C230.837,198.719,230.545,198.697,230.545,198.697z"/>
		</g>
	</g>
	<g>
		<g>
			<path style="fill:#E0E0E0;" d="M416.843,117.717h-65.681c-8.016,0-14.514,6.498-14.514,14.514v28.516
				c0,8.016,6.498,14.514,14.514,14.514h1.805v11.302l11.302-11.302h52.574c8.016,0,14.514-6.498,14.514-14.514v-28.516
				C431.356,124.216,424.858,117.717,416.843,117.717z"/>
		</g>
		<g>
			<g>
				<circle style="fill:#FFFFFF;" cx="369.13" cy="148.416" r="3.223"/>
				<path style="fill:#FAFAFA;" d="M369.13,152.139c-2.053,0-3.724-1.67-3.724-3.723c0-2.053,1.671-3.723,3.724-3.723
					s3.723,1.67,3.723,3.723C372.853,150.469,371.183,152.139,369.13,152.139z M369.13,145.693c-1.502,0-2.724,1.222-2.724,2.723
					c0,1.501,1.222,2.723,2.724,2.723c1.501,0,2.723-1.222,2.723-2.723C371.853,146.914,370.632,145.693,369.13,145.693z"/>
			</g>
			<g>
				<circle style="fill:#FFFFFF;" cx="384.002" cy="148.271" r="3.223"/>
				<path style="fill:#FAFAFA;" d="M384.003,151.993c-2.053,0-3.724-1.67-3.724-3.723c0-2.053,1.671-3.723,3.724-3.723
					c2.053,0,3.723,1.67,3.723,3.723C387.725,150.324,386.055,151.993,384.003,151.993z M384.003,145.548
					c-1.502,0-2.724,1.222-2.724,2.723c0,1.501,1.222,2.723,2.724,2.723c1.501,0,2.723-1.221,2.723-2.723
					C386.725,146.769,385.504,145.548,384.003,145.548z"/>
			</g>
			<g>
				<circle style="fill:#FFFFFF;" cx="398.874" cy="148.271" r="3.223"/>
				<path style="fill:#FAFAFA;" d="M398.875,151.993c-2.053,0-3.724-1.67-3.724-3.723c0-2.053,1.671-3.723,3.724-3.723
					c2.053,0,3.723,1.67,3.723,3.723C402.597,150.324,400.927,151.993,398.875,151.993z M398.875,145.548
					c-1.502,0-2.724,1.222-2.724,2.723c0,1.501,1.222,2.723,2.724,2.723c1.501,0,2.723-1.221,2.723-2.723
					C401.597,146.769,400.376,145.548,398.875,145.548z"/>
			</g>
		</g>
	</g>
</g>
<g id="Background_Simple" style="display:none;">
	<path style="display:inline;fill:#F5F5F5;" d="M411.582,138.844c2.279,3.709,4.312,7.566,6.031,11.565
		c21.069,49.018,12.405,108.716-17.638,153.092c-31.533,46.576-83.993,76.731-139.157,87.712
		c-39.378,7.838-81.74,6.242-117.721-11.576c-35.98-17.819-64.272-53.667-66.429-93.76c-0.815-15.143,2.397-31.224,12.503-42.531
		c16.136-18.055,43.683-18.691,67.887-17.946s51.732,0.18,67.948-17.804c12.459-13.819,14.294-33.863,20.859-51.273
		c11.164-29.602,38.096-52.715,69.049-59.258c10.375-2.193,21.091-2.501,31.589-1.091C373.52,99.602,397.31,115.62,411.582,138.844
		L411.582,138.844z"/>
</g>
<g id="Plants">
	<g>
		<path style="fill:#E8505B;" d="M88.012,217.176c3.306,4.16,8.912,6.632,8.297,9.935c-0.547,2.94-3.168,11.833-2.929,14.814
			c0.311,3.876,3.873,6.571,7.154,8.658c3.281,2.087,6.928,4.546,7.596,8.377c0.578,3.313-1.317,6.703-0.673,10.003
			c0.816,4.178,5.21,6.496,9.142,8.128c6.715,2.787,13.54,5.306,20.455,7.551c1.571-7.039-0.953-14.842-6.348-19.628
			c-2.535-2.248-5.689-3.926-7.488-6.797c-2.147-3.426-1.898-7.755-2.179-11.788c-0.281-4.033-1.605-8.597-5.303-10.231
			c-2.06-0.91-4.64-0.783-6.259-2.348c-1.996-1.929-1.392-5.197-1.995-7.906c-0.843-3.785-4.255-6.574-7.94-7.779
			C95.854,216.96,91.887,217.062,88.012,217.176"/>
	</g>
	<g>
		<path style="fill:#E8505B;" d="M147.451,293.922c-4.603-7.463-2.681-16.445,1.162-24.326c3.843-7.881,10.264-14.169,16.741-20.078
			c6.597-6.019,14.467-12.196,23.36-11.379c-5.102,2.573-7.2,8.695-8.274,14.308s-1.771,11.689-5.537,15.986
			c-1.895,2.162-4.585,3.929-5.173,6.743c-0.532,2.546,0.872,5.235,0.2,7.748c-1.091,4.077-6.756,5.23-8.514,9.067
			c-0.85,1.855-0.667,4.137-1.861,5.792c-1.513,2.097-4.732,2.278-7.035,1.101c-2.303-1.177-3.905-3.348-5.42-5.444"/>
	</g>
	<g>
		<g>
			<path style="fill:#263238;" d="M149.159,314.99c0,0-0.989-1.386-2.322-4.147c-1.338-2.758-2.969-6.881-4.873-12.007
				c-0.959-2.561-1.984-5.374-3.156-8.364c-1.18-2.983-2.457-6.177-4.153-9.347c-0.835-1.591-1.84-3.14-3.07-4.527
				c-1.295-1.343-2.851-2.477-4.491-3.544c-1.639-1.073-3.374-2.083-5.028-3.296c-1.647-1.208-3.233-2.622-4.42-4.4
				c-1.211-1.772-1.761-3.903-1.885-5.945c-0.155-2.049-0.034-4.059-0.194-5.995c-0.162-1.925-0.605-3.832-1.623-5.364
				c-0.516-0.753-1.16-1.404-1.932-1.858c-0.766-0.466-1.61-0.792-2.457-1.088c-1.678-0.587-3.483-1.076-4.796-2.34
				c-1.336-1.266-1.675-3.128-1.687-4.723c-0.022-1.63,0.174-3.175,0.125-4.647c-0.037-1.469-0.382-2.856-0.879-4.108
				c-1.019-2.509-2.609-4.455-4.153-5.947c-1.559-1.496-3.087-2.581-4.343-3.443c-1.265-0.854-2.274-1.479-2.953-1.91
				c-0.319-0.204-0.574-0.367-0.771-0.494c-0.173-0.113-0.258-0.175-0.254-0.183c0.005-0.008,0.1,0.039,0.281,0.137
				c0.205,0.115,0.468,0.263,0.798,0.449c0.698,0.402,1.724,1,3.011,1.831c1.279,0.839,2.834,1.906,4.432,3.401
				c1.583,1.492,3.224,3.452,4.294,6.019c0.521,1.28,0.891,2.713,0.939,4.233c0.061,1.514-0.127,3.066-0.094,4.652
				c0.023,1.563,0.357,3.263,1.575,4.404c1.197,1.149,2.929,1.632,4.634,2.215c0.858,0.297,1.735,0.629,2.555,1.124
				c0.829,0.484,1.536,1.193,2.089,1.997c1.094,1.64,1.548,3.625,1.719,5.599c0.166,1.989,0.047,3.993,0.203,5.998
				c0.127,2.003,0.648,4,1.803,5.697c1.135,1.702,2.673,3.082,4.292,4.27c1.622,1.193,3.351,2.204,5.001,3.287
				c1.651,1.078,3.239,2.237,4.571,3.626c1.28,1.448,2.294,3.033,3.133,4.644c1.704,3.213,2.967,6.421,4.133,9.419
				c1.157,3.003,2.163,5.825,3.099,8.393c1.859,5.14,3.435,9.274,4.712,12.048c0.656,1.377,1.158,2.453,1.568,3.144
				c0.18,0.333,0.324,0.598,0.436,0.805C149.121,314.889,149.167,314.985,149.159,314.99z"/>
		</g>
	</g>
	<g>
		<g>
			<path style="fill:#263238;" d="M188.501,238.035c0.007,0.016-0.265,0.163-0.788,0.426c-0.525,0.259-1.289,0.663-2.241,1.234
				c-1.902,1.132-4.576,2.976-7.288,5.872c-1.351,1.447-2.7,3.157-3.929,5.133c-0.599,0.997-1.186,2.046-1.715,3.169
				c-0.534,1.122-1.048,2.3-1.645,3.485c-0.599,1.181-1.29,2.374-2.211,3.445c-0.91,1.082-2.118,1.943-3.398,2.607
				c-1.271,0.685-2.612,1.264-3.778,2.114c-1.173,0.834-2.063,2.035-2.464,3.463c-0.837,2.848-0.383,5.941-1.353,8.752
				c-0.973,2.789-2.796,4.959-4.032,7.244c-1.26,2.277-1.904,4.713-2.144,7.017c-0.246,2.309-0.13,4.488,0.133,6.448
				c0.558,3.927,1.578,7.003,2.229,9.125c0.328,1.027,0.588,1.841,0.781,2.442c0.176,0.559,0.261,0.856,0.244,0.862
				c-0.008,0.003-0.042-0.067-0.1-0.206c-0.066-0.169-0.146-0.373-0.243-0.622c-0.208-0.549-0.507-1.36-0.874-2.413
				c-0.711-2.107-1.79-5.173-2.402-9.138c-0.29-1.98-0.43-4.189-0.198-6.545c0.226-2.348,0.869-4.855,2.153-7.202
				c1.257-2.34,3.052-4.51,3.969-7.178c0.928-2.664,0.47-5.724,1.339-8.742c0.417-1.512,1.413-2.855,2.656-3.728
				c1.234-0.895,2.595-1.475,3.843-2.146c1.262-0.654,2.386-1.452,3.263-2.483c0.884-1.02,1.563-2.176,2.159-3.337
				c0.593-1.165,1.114-2.337,1.659-3.465c0.542-1.131,1.146-2.194,1.761-3.199c1.262-1.992,2.645-3.71,4.028-5.157
				c2.777-2.896,5.51-4.709,7.454-5.794c0.974-0.547,1.757-0.924,2.297-1.153C188.208,238.133,188.494,238.018,188.501,238.035z"/>
		</g>
	</g>
</g>
<g id="Character">
	<g>
		<path style="fill:#263238;" d="M300.397,273.193c9.384-0.812,18.916-1.622,28.24-0.498c9.323,1.124,18.577,4.462,23.629,10.302
			c4.255,4.918,5.086,10.96,5.808,16.755c2.06,16.548,4.119,33.096,6.178,49.644c0.525,4.217,1.027,8.584-0.859,12.587
			c-4.12,8.748-19.294,12.877-31.381,10.145c-12.087-2.732-20.839-10.758-25.15-19.457c-4.311-8.699-4.861-18.116-5.366-27.361
			c-0.917-16.767-1.833-33.534-2.75-50.301c0.408-0.265,0.815-0.53,1.223-0.795"/>
	</g>
	<g>
		<g>
			<polygon style="fill:#263238;" points="39.727,358.976 42.64,369.215 320.521,449.912 416.104,386.833 416.104,378.23 			"/>
		</g>
		<g>
			<polygon style="fill:#455A64;" points="139.412,312.681 416.104,378.23 320.521,440.601 39.727,358.976 			"/>
		</g>
	</g>
	<g>
		<g>
			<g>
				<polygon style="fill:#263238;" points="285.395,368.961 232.474,394.54 135.451,368.079 183.08,342.06 				"/>
			</g>
			<g>
				<polygon style="fill:#455A64;" points="227.042,367.879 241.093,372.52 254.1,365.447 232.45,358.502 219.806,365.055 				"/>
			</g>
			<g>
				<path style="fill:#263238;" d="M123.103,296.635c0.441,1.764,12.348,71.444,12.348,71.444l97.023,26.461l-12.789-74.531
					L123.103,296.635z"/>
			</g>
			<g>
				<g>
					<path style="fill:#455A64;" d="M225.413,353.39c0.142-0.024,1.838,9.168,3.787,20.53c1.95,11.365,3.416,20.596,3.274,20.62
						s-1.837-9.166-3.787-20.532C226.737,362.647,225.271,353.415,225.413,353.39z"/>
				</g>
			</g>
		</g>
		<g>
			<path style="fill:#455A64;" d="M180.386,343.747c1.18,3.048,0.011,6.342-2.613,7.358c-2.624,1.016-5.707-0.63-6.888-3.678
				c-1.181-3.048-0.011-6.342,2.613-7.358C176.122,339.053,179.205,340.7,180.386,343.747z"/>
		</g>
	</g>
	<g>
		<g>
			<g>
				<g>
					<path style="fill:#FFBE9D;" d="M219.684,320.009c4.318-4.986,6.83-39.041,6.83-39.041l32.022,3.604l0,0
						c0,0-4.603,49.813-19.231,55.789c-14.628,5.977-14.628,5.977-14.628,5.977"/>
				</g>
			</g>
		</g>
		<g>
			<g>
				<path style="fill:#E8505B;" d="M324.807,330.674c0,0,14.166,15.863,13.312,29.081l-25.128-5.953l9.686-23.128"/>
			</g>
			<g>
				<g>
					<g>
						<g>
							<g>
								<path style="fill:#E8505B;" d="M344.987,286.255c-0.613-27.785-11.595-41.385-12.046-43.15
									c-13.924-15.138-31.964-14.059-31.964-14.059l-29.83,0.484c0,0-11.361,1.033-22.091,6.425l-0.736,0.214l0.006,0.154
									c-8.432,4.408-17.495,11.27-18.928,22.84l-3.604,22.526l20.736,0.988l0,0c-2.109,7.542-4.439,8.511-2.012,15.957
									l7.903,13.105c0,10.456-0.704,4.127-3.913,26.788l80.126,18.982c4.646-4.579,1.109-16.984-11.295-39.569
									c-1.854-3.375,7.758-37.375,7.758-37.375l17.932,6.28"/>
							</g>
						</g>
						<g>
							<g>
								<path style="fill:#E8505B;" d="M329.744,374.367"/>
							</g>
						</g>
					</g>
				</g>
				<g>
					<g>
						<path style="fill:#263238;" d="M251.198,274.114c0.031,0.018-0.229,0.521-0.722,1.416c-0.491,0.896-1.218,2.181-2.063,3.795
							c-1.646,3.204-3.935,7.858-4.155,13.409c-0.12,2.753,0.403,5.376,1.376,7.548c0.966,2.183,2.261,3.938,3.391,5.355
							c1.142,1.415,2.146,2.498,2.826,3.259c0.684,0.758,1.056,1.185,1.029,1.211c-0.025,0.024-0.445-0.354-1.175-1.07
							c-0.727-0.719-1.775-1.766-2.964-3.164c-1.177-1.4-2.527-3.159-3.545-5.393c-1.026-2.224-1.582-4.943-1.458-7.763
							c0.096-2.825,0.777-5.456,1.615-7.734c0.851-2.28,1.85-4.23,2.736-5.83c0.891-1.6,1.668-2.859,2.213-3.724
							C250.848,274.563,251.167,274.096,251.198,274.114z"/>
					</g>
				</g>
				<g>
					<g>
						<path style="fill:#263238;" d="M342.092,262.217c0.006,0.007-0.072,0.076-0.229,0.203c-0.16,0.124-0.388,0.323-0.713,0.549
							c-0.657,0.437-1.673,1.043-3.111,1.509c-2.855,0.976-7.405,1.15-12.572-0.408c-2.582-0.761-5.304-1.879-8.242-2.992
							c-2.935-1.09-6.129-2.233-9.634-2.493c-3.492-0.343-7.204,0.129-10.904,1.106c-3.711,0.969-7.429,2.407-11.245,3.861
							c-3.817,1.453-7.579,2.847-11.359,3.716c-3.769,0.883-7.569,1.167-11.115,0.647c-3.543-0.552-6.716-1.818-9.613-3.038
							c-2.899-1.233-5.571-2.44-8.104-3.267c-2.53-0.832-4.918-1.261-7.027-1.37c-2.111-0.094-3.935,0.141-5.365,0.541
							c-2.876,0.833-4.118,2.059-4.161,1.971c-0.006-0.007,0.074-0.074,0.234-0.197c0.162-0.121,0.398-0.31,0.726-0.532
							c0.671-0.415,1.696-1.003,3.145-1.437c1.443-0.436,3.292-0.705,5.433-0.638c2.14,0.083,4.563,0.491,7.128,1.311
							c2.568,0.813,5.259,2.007,8.158,3.219c2.897,1.201,6.044,2.435,9.517,2.962c3.477,0.496,7.205,0.21,10.93-0.669
							c3.734-0.865,7.474-2.254,11.289-3.706c3.814-1.452,7.551-2.895,11.302-3.867c3.738-0.98,7.516-1.453,11.077-1.09
							c3.577,0.281,6.805,1.457,9.742,2.567c2.941,1.134,5.644,2.267,8.194,3.043c5.097,1.585,9.575,1.469,12.405,0.568
							C340.837,263.392,342.047,262.129,342.092,262.217z"/>
					</g>
				</g>
				<g>
					<g>
						<path style="fill:#263238;" d="M317.493,311.9c0.005,0.017-0.217,0.102-0.645,0.247c-0.481,0.154-1.106,0.354-1.882,0.603
							c-1.642,0.493-4.03,1.218-7.079,1.695c-1.523,0.236-3.218,0.368-5.038,0.295c-1.821-0.077-3.75-0.433-5.709-1.006
							c-3.931-1.149-7.912-3.237-12.261-4.89c-2.184-0.8-4.369-1.434-6.52-1.87c-2.153-0.421-4.258-0.669-6.271-0.793
							c-4.03-0.187-7.675,0.136-10.669,0.729c-2.997,0.585-5.369,1.322-6.969,1.924c-0.813,0.269-1.415,0.555-1.841,0.705
							c-0.421,0.162-0.646,0.24-0.654,0.224c-0.008-0.016,0.203-0.126,0.611-0.32c0.413-0.182,1.004-0.499,1.81-0.798
							c1.585-0.663,3.956-1.46,6.97-2.096c3.011-0.645,6.689-1.01,10.765-0.847c2.036,0.112,4.166,0.352,6.347,0.771
							c2.177,0.435,4.393,1.073,6.603,1.883c4.395,1.672,8.351,3.762,12.216,4.918c1.927,0.576,3.81,0.939,5.593,1.034
							c1.783,0.089,3.455-0.018,4.964-0.229c3.022-0.425,5.419-1.092,7.075-1.525c0.788-0.21,1.421-0.379,1.908-0.509
							C317.255,311.933,317.488,311.882,317.493,311.9z"/>
					</g>
				</g>
				<g>
					<g>
						<path style="fill:#263238;" d="M281.164,341.245c-0.005,0.031-0.482-0.004-1.334-0.143c-0.853-0.137-2.075-0.411-3.558-0.843
							c-2.981-0.822-6.903-2.52-11.378-3.843c-4.477-1.306-8.805-1.42-11.75-0.64c-2.971,0.741-4.457,2.056-4.518,1.941
							c-0.011-0.014,0.077-0.096,0.255-0.238c0.184-0.133,0.433-0.366,0.809-0.583c0.721-0.482,1.862-1.047,3.361-1.476
							c2.997-0.893,7.442-0.832,11.987,0.496c4.532,1.342,8.413,3.088,11.344,3.992c1.458,0.473,2.655,0.799,3.49,0.996
							C280.705,341.103,281.171,341.205,281.164,341.245z"/>
					</g>
				</g>
			</g>
			<g style="opacity:0.1;">
				<path d="M318.144,280.124c0,0-13.06,28.785-1.672,47.608l5.338-1.993l-4.47-7.799c0,0-0.483-1.536-0.148-3.616
					c0.659-4.102,1.929-10.788,3.627-17.537L318.144,280.124z"/>
			</g>
		</g>
		<g>
			<g>
				<path style="fill:#263238;" d="M296.341,176.204c6.436,5.614,9.309,14.458,9.52,22.996c0.211,8.538-0.545,18.227-0.34,27.14
					l13.056-0.257c8.635,0.257,18.412-0.649,26.674-1.289c1.373-0.106,2.814-0.239,3.953-1.012c1.9-1.289,2.326-3.861,2.585-6.142
					c0.407-3.591,0.806-7.298-0.228-10.761c-1.034-3.463-3.887-6.649-7.491-6.905c-1.27-0.09-2.604,0.172-3.784-0.305
					c-1.387-0.561-2.21-2.027-2.543-3.486c-0.333-1.459-0.283-2.977-0.505-4.456c-0.662-4.412-3.941-8.329-8.167-9.757
					c-2.677-0.904-5.909-1.029-7.669-3.24c-2.14-2.688-0.737-6.576-0.624-10.01c0.155-4.723-2.63-9.418-6.848-11.547
					c-4.218-2.129-9.65-1.58-13.357,1.349"/>
			</g>
			<g>
				<g>
					<g>
						<g>
							<g>
								<g>
									<path style="fill:#FFBE9D;" d="M286.236,245.407L286.236,245.407c-8.193,0-14.932-6.457-15.279-14.642
										c-0.279-6.575-0.51-12.815-0.51-12.815s-12.542-1.165-13.462-13.576c-0.92-12.412-0.526-41.066-0.526-41.066l0,0
										c13.997-7.067,30.723-6.005,43.713,2.776l1.928,1.303l-0.571,62.866C301.452,238.644,294.628,245.407,286.236,245.407z"/>
								</g>
							</g>
						</g>
						<g>
							<g>
								<g>
									<g>
										<path style="fill:#263238;" d="M261.959,186.854c0.697-0.715,0.682-1.859-0.033-2.556
											c-0.715-0.697-1.859-0.682-2.556,0.033c-0.697,0.715-0.682,1.859,0.033,2.556
											C260.118,187.584,261.263,187.569,261.959,186.854z"/>
									</g>
								</g>
							</g>
							<g>
								<g>
									<g>
										<g>
											<path style="fill:#263238;" d="M257.539,183.052c0.208,0.203,1.37-0.811,3.079-0.924
												c1.709-0.139,3.007,0.694,3.182,0.462c0.086-0.103-0.131-0.479-0.699-0.858c-0.557-0.377-1.494-0.715-2.56-0.636
												c-1.065,0.078-1.942,0.551-2.438,1.005C257.599,182.559,257.439,182.963,257.539,183.052z"/>
										</g>
									</g>
								</g>
							</g>
						</g>
						<g>
							<g>
								<g>
									<g>
										<path style="fill:#263238;" d="M277.33,184.115c-0.816,0.574-1.013,1.701-0.438,2.518
											c0.574,0.816,1.702,1.013,2.518,0.439c0.816-0.574,1.013-1.701,0.439-2.518
											C279.274,183.737,278.147,183.541,277.33,184.115z"/>
									</g>
								</g>
							</g>
							<g>
								<g>
									<g>
										<g>
											<path style="fill:#263238;" d="M276.203,183.434c0.208,0.203,1.37-0.811,3.079-0.924
												c1.709-0.139,3.007,0.694,3.182,0.462c0.087-0.103-0.131-0.479-0.699-0.858c-0.557-0.377-1.494-0.715-2.56-0.636
												c-1.065,0.079-1.942,0.551-2.438,1.005C276.263,182.941,276.103,183.345,276.203,183.434z"/>
										</g>
									</g>
								</g>
							</g>
						</g>
						<g>
							<g>
								<g>
									<g>
										<path style="fill:#263238;" d="M270.133,196.725c0.003-0.135-1.068-0.283-2.803-0.415
											c-0.451-0.021-0.808-0.101-0.855-0.339c-0.097-0.266,0.047-0.754,0.241-1.301c0.371-1.158,0.745-2.331,1.138-3.56
											c1.563-5.068,2.622-9.239,2.365-9.318c-0.257-0.079-1.733,3.963-3.296,9.031c-0.368,1.236-0.718,2.416-1.065,3.582
											c-0.132,0.528-0.406,1.151-0.13,1.875c0.146,0.362,0.515,0.608,0.815,0.667c0.302,0.072,0.555,0.056,0.77,0.053
											C269.053,196.954,270.13,196.859,270.133,196.725z"/>
									</g>
								</g>
							</g>
						</g>
						<g>
							<g>
								<g>
									<path style="fill:#FFFFFF;" d="M275.808,198.272c1.717-1.172-4.747,2.91-8.239,2.955c0,0,2.195,3.069,5.695,1.538
										C276.897,201.174,275.808,198.272,275.808,198.272z"/>
								</g>
							</g>
						</g>
						<g>
							<g>
								<g>
									<path style="fill:#EB996E;" d="M270.415,217.772c0,0,7.889,0.154,15.909-5.601c0,0-3.276,9.175-15.739,8.821
										L270.415,217.772z"/>
								</g>
							</g>
						</g>
					</g>
				</g>
				<g>
					<g>
						<path style="fill:#263238;" d="M301.253,192.946c-4.497,3.619-9.93-5.746-12.34-11.621
							c-2.411-5.875-3.157-12.369-3.507-18.774c-0.115-2.098-0.133-4.4,1.086-6.05c1.287-1.743,1.732,0.275,3.265-1.241
							c2.65-2.619,0.131-2.63,2.779-2.309c4.531,0.549,14.406,8.4,15.235,13.149c0.829,4.749,0.159,9.634-0.513,14.411
							c-0.307,2.182-0.614,4.364-0.921,6.546c-0.217,1.542-0.456,3.146-1.293,4.423
							C304.207,192.758,302.581,193.589,301.253,192.946"/>
					</g>
				</g>
				<g>
					<g>
						<g>
							<g>
								<path style="fill:#FFBE9D;" d="M301.411,182.734c0.007-1.003,0.79-1.852,1.793-1.88c2.317-0.064,6.108,0.856,6.465,7.252
									c0.509,9.137-8.28,6.857-8.31,6.596C301.334,194.499,301.387,186.285,301.411,182.734z"/>
							</g>
						</g>
					</g>
					<g>
						<g>
							<g>
								<g>
									<path style="fill:#EB996E;" d="M303.371,191.112c0.039-0.032,0.165,0.103,0.441,0.211c0.269,0.105,0.725,0.163,1.191-0.042
										c0.945-0.408,1.673-1.986,1.625-3.635c-0.023-0.833-0.241-1.615-0.572-2.254c-0.316-0.653-0.774-1.096-1.265-1.155
										c-0.49-0.085-0.818,0.225-0.915,0.489c-0.108,0.263-0.04,0.442-0.088,0.46c-0.024,0.024-0.205-0.142-0.152-0.524
										c0.028-0.183,0.123-0.405,0.328-0.592c0.209-0.191,0.527-0.299,0.867-0.282c0.707,0.01,1.378,0.623,1.741,1.324
										c0.403,0.703,0.668,1.581,0.694,2.516c0.044,1.844-0.803,3.62-2.102,4.075c-0.634,0.203-1.18,0.039-1.469-0.161
										C303.4,191.332,303.34,191.13,303.371,191.112z"/>
								</g>
							</g>
						</g>
					</g>
				</g>
				<g>
					<g>
						<path style="fill:#263238;" d="M286.437,156.61c-2.553,8.407-9.171,15.477-17.391,18.579
							c-0.704,0.266-1.563,0.483-2.155,0.019c-0.762-0.598-0.467-1.856,0.169-2.586c0.636-0.731,1.532-1.244,1.999-2.092
							c-1.55,0.878-3.1,1.756-4.65,2.633c-0.76,0.43-1.54,0.868-2.402,1.01c-0.862,0.142-1.837-0.07-2.385-0.75
							c-0.548-0.68-0.452-1.861,0.319-2.272c-1.049,1.719-3.746,1.882-5.289,0.588c-1.543-1.294-1.969-3.588-1.454-5.535
							c0.514-1.947,1.818-3.592,3.261-4.996c6.435-6.258,15.776-8.525,24.731-9.141c2.763-0.19,5.568-0.245,8.271,0.36
							c2.703,0.604,6.879,0.383,11.748,5.717"/>
					</g>
				</g>
			</g>
			<g>
				<g>
					<path style="fill:#263238;" d="M264.462,178.382c-0.099,0.284-1.735-0.077-3.746-0.023c-2.012,0.028-3.632,0.456-3.742,0.176
						c-0.121-0.246,1.488-1.179,3.721-1.218C262.926,177.264,264.573,178.131,264.462,178.382z"/>
				</g>
			</g>
			<g>
				<g>
					<path style="fill:#263238;" d="M282.728,178.588c-0.102,0.281-1.677-0.064-3.618-0.154c-1.942-0.11-3.544,0.071-3.616-0.219
						c-0.081-0.264,1.547-0.937,3.669-0.821C281.285,177.497,282.835,178.333,282.728,178.588z"/>
				</g>
			</g>
			<g>
				<g>
					<path style="fill:#455A64;" d="M306.637,173.228c-0.144-0.083,0.347-0.993,0.696-2.559c0.358-1.547,0.483-3.822-0.331-6.091
						c-0.819-2.268-2.365-3.942-3.627-4.906c-1.267-0.984-2.224-1.373-2.167-1.528c0.031-0.115,1.108,0.027,2.585,0.923
						c1.461,0.871,3.275,2.631,4.188,5.16c0.906,2.53,0.63,5.042,0.059,6.644C307.474,172.501,306.735,173.297,306.637,173.228z"/>
				</g>
			</g>
		</g>
		<g>
			<g>
				<path style="fill:#FFBE9D;" d="M318.144,280.124l7.114,44.327l-57.324,21.406l9.273,19.123l60.333-18.845
					c9.852-3.077,15.873-13.007,14.047-23.166l-7.702-42.844H318.144z"/>
			</g>
			<g>
				<g>
					<path style="fill:#FFBE9D;" d="M268.28,345.728c0,0-10.671-3.401-15.787-4.706c-1.994-0.508-10.534,3.996-16.431,7.741
						c0,0-8.123,4.816-7.466,6.3c0.723,1.633,3.719,1.298,8.495-0.948c0,0-1.666,4.839,1.605,4.735c0,0-1.623,5.23,1.443,5.771
						c3.066,0.541,3.787-6.132,6.493-6.493c2.705-0.361,8.296-0.721,8.296-0.721s4.656,7.711,8.263,8.252
						c3.607,0.541,14.358-0.68,14.358-0.68L268.28,345.728z"/>
				</g>
				<g>
					<g>
						<path style="fill:#EB996E;" d="M246.683,347.847c0.077,0.122-1.737,1.404-4.051,2.863c-2.315,1.46-4.253,2.544-4.33,2.423
							c-0.077-0.122,1.737-1.403,4.052-2.863C244.668,348.81,246.606,347.725,246.683,347.847z"/>
					</g>
				</g>
				<g>
					<g>
						<path style="fill:#EB996E;" d="M247.597,350.82c0.06,0.131-2.141,1.275-4.917,2.556c-2.776,1.282-5.075,2.214-5.135,2.084
							c-0.06-0.131,2.141-1.275,4.917-2.556C245.238,351.622,247.537,350.689,247.597,350.82z"/>
					</g>
				</g>
				<g>
					<g>
						<path style="fill:#EB996E;" d="M245.942,358.028c0.02,0.143-1.513,0.47-3.422,0.732c-1.91,0.262-3.473,0.358-3.492,0.216
							c-0.02-0.142,1.512-0.47,3.422-0.732C244.359,357.983,245.923,357.886,245.942,358.028z"/>
					</g>
				</g>
			</g>
		</g>
	</g>
</g>
<g id="Document">
	<g>
		<g>
			<g>
				<rect x="128.826" y="103.971" style="fill:#FAFAFA;" width="85.793" height="109.388"/>
			</g>
			<g>
				<g>
					<path style="fill:#263238;" d="M214.619,213.359c0,0-0.009-0.183-0.013-0.528c-0.003-0.356-0.008-0.866-0.014-1.534
						c-0.006-1.359-0.016-3.352-0.028-5.944c-0.014-5.198-0.035-12.786-0.062-22.403c-0.028-19.22-0.069-46.535-0.117-78.979
						l0.234,0.234c-25.595,0.008-54.849,0.017-85.783,0.027h-0.009l0.26-0.26c-0.017,40.546-0.032,78.199-0.045,109.387
						l-0.216-0.216c25.857,0.046,47.277,0.085,62.248,0.112c7.49,0.024,13.363,0.043,17.379,0.055
						c1.999,0.011,3.533,0.019,4.581,0.025C214.072,213.343,214.619,213.359,214.619,213.359s-0.516,0.016-1.539,0.024
						c-1.039,0.006-2.559,0.014-4.54,0.025c-4.004,0.013-9.861,0.032-17.33,0.056c-15.003,0.027-36.47,0.065-62.383,0.112l-0.216,0
						l0-0.216c-0.013-31.188-0.028-68.841-0.045-109.387l0-0.26h0.261h0.009c30.934,0.01,60.188,0.019,85.783,0.027l0.234,0l0,0.234
						c-0.048,32.506-0.088,59.874-0.117,79.131c-0.027,9.594-0.048,17.164-0.062,22.35c-0.012,2.571-0.021,4.549-0.028,5.898
						c-0.006,0.657-0.01,1.158-0.014,1.508C214.628,213.194,214.619,213.359,214.619,213.359z"/>
				</g>
			</g>
		</g>
		<g>
			<g>
				<path style="fill:#263238;" d="M203.562,122.108c0,0.288-7.239,0.521-16.166,0.521c-8.93,0-16.168-0.233-16.168-0.521
					c0-0.287,7.237-0.521,16.168-0.521C196.323,121.587,203.562,121.821,203.562,122.108z"/>
			</g>
		</g>
		<g>
			<g>
				<path style="fill:#263238;" d="M203.562,128.434c0,0.288-7.239,0.521-16.166,0.521c-8.93,0-16.168-0.233-16.168-0.521
					c0-0.288,7.237-0.521,16.168-0.521C196.323,127.914,203.562,128.147,203.562,128.434z"/>
			</g>
		</g>
		<g>
			<g>
				<path style="fill:#263238;" d="M203.562,135.698c0,0.288-7.239,0.521-16.166,0.521c-8.93,0-16.168-0.233-16.168-0.521
					c0-0.287,7.237-0.521,16.168-0.521C196.323,135.177,203.562,135.41,203.562,135.698z"/>
			</g>
		</g>
		<g>
			<g>
				<path style="fill:#263238;" d="M165.735,150.94c0,0.288-6.397,0.521-14.287,0.521c-7.893,0-14.288-0.233-14.288-0.521
					c0-0.288,6.396-0.521,14.288-0.521C159.337,150.419,165.735,150.653,165.735,150.94z"/>
			</g>
		</g>
		<g>
			<g>
				<path style="fill:#263238;" d="M165.735,157.266c0,0.288-6.397,0.521-14.287,0.521c-7.893,0-14.288-0.233-14.288-0.521
					c0-0.288,6.396-0.521,14.288-0.521C159.337,156.746,165.735,156.979,165.735,157.266z"/>
			</g>
		</g>
		<g>
			<g>
				<path style="fill:#263238;" d="M165.735,164.53c0,0.288-6.397,0.521-14.287,0.521c-7.893,0-14.288-0.233-14.288-0.521
					c0-0.288,6.396-0.521,14.288-0.521C159.337,164.009,165.735,164.242,165.735,164.53z"/>
			</g>
		</g>
		<g>
			<g>
				<path style="fill:#263238;" d="M165.735,172.13c0,0.288-6.397,0.521-14.287,0.521c-7.893,0-14.288-0.233-14.288-0.521
					c0-0.287,6.396-0.521,14.288-0.521C159.337,171.609,165.735,171.842,165.735,172.13z"/>
			</g>
		</g>
		<g>
			<g>
				<path style="fill:#263238;" d="M165.735,178.456c0,0.288-6.397,0.521-14.287,0.521c-7.893,0-14.288-0.233-14.288-0.521
					c0-0.288,6.396-0.521,14.288-0.521C159.337,177.935,165.735,178.169,165.735,178.456z"/>
			</g>
		</g>
		<g>
			<g>
				<path style="fill:#263238;" d="M165.735,185.719c0,0.288-6.397,0.521-14.287,0.521c-7.893,0-14.288-0.233-14.288-0.521
					c0-0.287,6.396-0.521,14.288-0.521C159.337,185.199,165.735,185.432,165.735,185.719z"/>
			</g>
		</g>
		<g>
			<g>
				<path style="fill:#263238;" d="M165.735,193.32c0,0.288-6.397,0.521-14.287,0.521c-7.893,0-14.288-0.233-14.288-0.521
					c0-0.287,6.396-0.521,14.288-0.521C159.337,192.799,165.735,193.032,165.735,193.32z"/>
			</g>
		</g>
		<g>
			<g>
				<path style="fill:#263238;" d="M165.735,199.646c0,0.288-6.397,0.521-14.287,0.521c-7.893,0-14.288-0.233-14.288-0.521
					c0-0.287,6.396-0.521,14.288-0.521C159.337,199.125,165.735,199.358,165.735,199.646z"/>
			</g>
		</g>
		<g>
			<g>
				<path style="fill:#263238;" d="M205.199,199.646c0,0.288-6.966,0.521-15.558,0.521c-8.594,0-15.559-0.233-15.559-0.521
					c0-0.287,6.965-0.521,15.559-0.521C198.233,199.125,205.199,199.358,205.199,199.646z"/>
			</g>
		</g>
		<g>
			<g>
				<path style="fill:#263238;" d="M204.581,178.456c0,0.288-6.966,0.521-15.558,0.521c-8.594,0-15.559-0.233-15.559-0.521
					c0-0.288,6.965-0.521,15.559-0.521C197.615,177.935,204.581,178.169,204.581,178.456z"/>
			</g>
		</g>
		<g>
			<g>
				<path style="fill:#263238;" d="M204.581,184.782c0,0.288-6.966,0.521-15.558,0.521c-8.594,0-15.559-0.233-15.559-0.521
					c0-0.288,6.965-0.521,15.559-0.521C197.615,184.262,204.581,184.495,204.581,184.782z"/>
			</g>
		</g>
		<g>
			<g>
				<path style="fill:#263238;" d="M204.581,192.046c0,0.288-6.966,0.521-15.558,0.521c-8.594,0-15.559-0.233-15.559-0.521
					c0-0.288,6.965-0.521,15.559-0.521C197.615,191.525,204.581,191.758,204.581,192.046z"/>
			</g>
		</g>
		<g>
			<rect x="175.075" y="146.766" style="fill:#E8505B;" width="27.422" height="20.621"/>
		</g>
		<g style="opacity:0.3;">
			<polygon points="175.075,161.119 182.116,156.425 189.641,161.119 197.719,155.156 202.497,158.137 202.497,167.387 
				175.075,167.387 			"/>
		</g>
		<g style="opacity:0.3;">
			<path d="M192.326,152.691c0,1.362-1.104,2.465-2.465,2.465c-1.362,0-2.465-1.104-2.465-2.465c0-1.361,1.104-2.465,2.465-2.465
				C191.222,150.225,192.326,151.329,192.326,152.691z"/>
		</g>
		<g>
			<path style="fill:#263238;" d="M157.805,121.282l0.198,4.195h-0.501c-0.097-0.739-0.229-1.267-0.396-1.583
				c-0.273-0.51-0.636-0.886-1.088-1.128c-0.453-0.242-1.049-0.363-1.788-0.363h-2.52v13.668c0,1.1,0.119,1.786,0.356,2.058
				c0.334,0.37,0.849,0.554,1.544,0.554h0.62v0.488h-7.586v-0.488h0.633c0.756,0,1.293-0.229,1.61-0.686
				c0.193-0.281,0.29-0.923,0.29-1.926v-13.668h-2.15c-0.835,0-1.429,0.062-1.781,0.185c-0.457,0.167-0.849,0.488-1.174,0.963
				c-0.326,0.475-0.519,1.117-0.581,1.926h-0.501l0.211-4.195H157.805z"/>
		</g>
	</g>
</g>
</svg>
